999
dxflib 2.2.0.0
  0
SECTION
  2
HEADER
  9
$ACADVER
  1
AC1015
  9
$HANDSEED
  5
FFFF
  9
$DIMLIM
 70
0
  9
$DIMLUNIT
 70
2
  9
$DIMTIX
 70
0
  9
$AUNITS
 70
0
  9
$QTEXTMODE
 70
0
  9
$USERR1
 40
0.0
  9
$DIMALTU
 70
2
  9
$UCSORGBOTTOM
 10
0.0
 20
0.0
 30
0.0
  9
$USERR2
 40
0.0
  9
$USERR3
 40
0.0
  9
$USERR4
 40
0.0
  9
$LIMMAX
 10
12.0
 20
9.0
  9
$USERR5
 40
0.0
  9
$PELEVATION
 40
0.0
  9
$DIMALTZ
 70
0
  9
$DIMADEC
 70
0
  9
$JOINSTYLE
280
0
  9
$DIMATFIT
 70
3
  9
$TILEMODE
 70
1
  9
$PEXTMIN
 10
100000000000000000000.0
 20
100000000000000000000.0
 30
100000000000000000000.0
  9
$TDUSRTIMER
 40
0.0444925694
  9
$DWGCODEPAGE
  3
ANSI_1252
  9
$UCSORTHOVIEW
 70
0
  9
$DIMSOXD
 70
0
  9
$DIMTZIN
 70
0
  9
$SPLINETYPE
 70
6
  9
$DIMLFAC
 40
1.0
  9
$DIMSE1
 70
0
  9
$FILLETRAD
 40
0.0
  9
$DIMSE2
 70
0
  9
$PSTYLEMODE
290
1
  9
$TEXTSTYLE
  7
STANDARD
  9
$DIMTSZ
 40
0.0
  9
$PUCSXDIR
 10
1.0
 20
0.0
 30
0.0
  9
$DIMTXSTY
  7
STANDARD
  9
$PLIMMAX
 10
12.0
 20
9.0
  9
$DIMTM
 40
0.0
  9
$UCSORG
 10
0.0
 20
0.0
 30
0.0
  9
$DIMTP
 40
0.0
  9
$PSLTSCALE
 70
1
  9
$ANGBASE
 50
0.0
  9
$PUCSYDIR
 10
0.0
 20
1.0
 30
0.0
  9
$EXTNAMES
290
1
  9
$DIMASZ
 40
0.18
  9
$PUCSORTHOVIEW
 70
0
  9
$INSBASE
 10
0.0
 20
0.0
 30
0.0
  9
$UNITMODE
 70
0
  9
$MEASUREMENT
 70
0
  9
$EXTMAX
 10
11436.7606998378596472
 20
22607.3976003242714796
 30
0.0
  9
$ELEVATION
 40
0.0
  9
$TDCREATE
 40
2456433.3936853939667344
  9
$DIMDEC
 70
4
  9
$CELTYPE
  6
ByBlock
  9
$MENU
  1
.
  9
$ANGDIR
 70
0
  9
$DIMALTTD
 70
2
  9
$TREEDEPTH
 70
3020
  9
$LTSCALE
 40
1.0
  9
$PROXYGRAPHICS
 70
1
  9
$DIMTMOVE
 70
2
  9
$DIMAZIN
 70
0
  9
$TDUPDATE
 40
2456524.4839056599885225
  9
$DIMTOLJ
 70
1
  9
$DIMCEN
 40
0.09
  9
$DIMTVP
 40
0.0
  9
$TRACEWID
 40
0.05
  9
$CMLSTYLE
  2
Standard
  9
$DISPSILH
 70
0
  9
$DIMSTYLE
  2
STANDARD
  9
$SKETCHINC
 40
0.1
  9
$FILLMODE
 70
1
  9
$PLINEGEN
 70
0
  9
$DIMLWD
 70
-2
  9
$THICKNESS
 40
0.0
  9
$DIMLWE
 70
-2
  9
$CELTSCALE
 40
1.0
  9
$PUCSORG
 10
0.0
 20
0.0
 30
0.0
  9
$DIMALTTZ
 70
0
  9
$INSUNITS
 70
0
  9
$UCSORGBACK
 10
0.0
 20
0.0
 30
0.0
  9
$PLINEWID
 40
0.0
  9
$PEXTMAX
 10
-100000000000000000000.0
 20
-100000000000000000000.0
 30
-100000000000000000000.0
  9
$DIMJUST
 70
0
  9
$UCSYDIR
 10
0.0
 20
1.0
 30
0.0
  9
$PUCSORGBACK
 10
0.0
 20
0.0
 30
0.0
  9
$PDSIZE
 40
0.0
  9
$PUCSORGBOTTOM
 10
0.0
 20
0.0
 30
0.0
  9
$DIMUPT
 70
0
  9
$DIMTAD
 70
0
  9
$UCSXDIR
 10
1.0
 20
0.0
 30
0.0
  9
$MAXACTVP
 70
48
  9
$DIMSAH
 70
0
  9
$TDUCREATE
 40
2456433.5603520600125194
  9
$DIMFRAC
 70
0
  9
$USERI1
 70
0
  9
$USERI2
 70
0
  9
$UCSORGRIGHT
 10
0.0
 20
0.0
 30
0.0
  9
$USERI3
 70
0
  9
$CELWEIGHT
370
-1
  9
$LWDISPLAY
290
0
  9
$SKPOLY
 70
0
  9
$USERI4
 70
0
  9
$USERI5
 70
0
  9
$UCSORGTOP
 10
0.0
 20
0.0
 30
0.0
  9
$LIMMIN
 10
0.0
 20
0.0
  9
$ACADMAINTVER
 70
6
  9
$MIRRTEXT
 70
1
  9
$TDUUPDATE
 40
2456524.6505723260343075
  9
$TEXTSIZE
 40
0.2
  9
$DIMGAP
 40
0.09
  9
$LUPREC
 70
4
  9
$CECOLOR
 62
256
  9
$DIMSD1
 70
0
  9
$DIMSD2
 70
0
  9
$WORLDVIEW
 70
0
  9
$PUCSORGRIGHT
 10
0.0
 20
0.0
 30
0.0
  9
$PLIMCHECK
 70
0
  9
$DIMTFAC
 40
1.0
  9
$CMLJUST
 70
0
  9
$USRTIMER
 70
1
  9
$SURFU
 70
6
  9
$SURFV
 70
6
  9
$DIMASO
 70
1
  9
$DIMDLE
 40
0.0
  9
$EXTMIN
 10
1384.5938598378620554
 20
304.6304203242652875
 30
0.0
  9
$UCSORGLEFT
 10
0.0
 20
0.0
 30
0.0
  9
$OLESTARTUP
290
0
  9
$PUCSORGFRONT
 10
0.0
 20
0.0
 30
0.0
  9
$DIMDLI
 40
0.38
  9
$LUNITS
 70
2
  9
$DIMCLRD
 70
0
  9
$SHADEDIF
 70
70
  9
$DIMCLRE
 70
0
  9
$SPLINESEGS
 70
8
  9
$PUCSORGLEFT
 10
0.0
 20
0.0
 30
0.0
  9
$DIMALTRND
 40
0.0
  9
$DIMRND
 40
0.0
  9
$DIMALT
 70
0
  9
$FINGERPRINTGUID
  2
{F106B374-1E92-4D5E-BE66-4ACC4505CA4F}
  9
$DIMCLRT
 70
0
  9
$PUCSORGTOP
 10
0.0
 20
0.0
 30
0.0
  9
$DIMTOH
 70
1
  9
$UCSORGFRONT
 10
0.0
 20
0.0
 30
0.0
  9
$VISRETAIN
 70
1
  9
$SHADEDGE
 70
3
  9
$DIMTOL
 70
0
  9
$SURFTYPE
 70
6
  9
$VERSIONGUID
  2
{034BCF5B-483E-4C94-9D0A-C40DBD5DB39E}
  9
$CHAMFERA
 40
0.5
  9
$SURFTAB1
 70
6
  9
$CHAMFERB
 40
0.5
  9
$SURFTAB2
 70
6
  9
$CHAMFERC
 40
0.0
  9
$AUPREC
 70
0
  9
$CHAMFERD
 40
0.0
  9
$DIMTDEC
 70
4
  9
$PDMODE
 70
0
  9
$SPLFRAME
 70
0
  9
$PLIMMIN
 10
0.0
 20
0.0
  9
$XEDIT
290
1
  9
$DIMDSEP
 70
46
  9
$LIMCHECK
 70
0
  9
$PINSBASE
 10
0.0
 20
0.0
 30
0.0
  9
$ORTHOMODE
 70
0
  9
$PSVPSCALE
 40
0.0
  9
$CLAYER
  8
LAYER-1
  9
$DIMSHO
 70
1
  9
$DIMTOFL
 70
0
  9
$DIMTXT
 40
0.18
  9
$DIMEXE
 40
0.18
  9
$TDINDWG
 40
0.0444925694
  9
$REGENMODE
 70
1
  9
$ATTMODE
 70
1
  9
$CMLSCALE
 40
1.0
  9
$DIMTIH
 70
1
  9
$DIMZIN
 70
0
  9
$CEPSNTYPE
380
0
  9
$DIMSCALE
 40
1.0
  9
$DIMALTD
 70
2
  9
$DIMAUNIT
 70
0
  9
$DIMALTF
 40
25.3999999999999986
  9
$DIMEXO
 40
0.0625
  9
$ENDCAPS
280
0
  0
ENDSEC
  0
SECTION
  2
TABLES
  0
TABLE
  2
VPORT
  5
8
100
AcDbSymbolTable
 70
1
  0
VPORT
  5
30
100
AcDbSymbolTableRecord
100
AcDbViewportTableRecord
  2
*Active
 70
0
 10
0.0
 20
0.0
 11
1.0
 21
1.0
 12
286.3055555555554861
 22
148.5
 13
0.0
 23
0.0
 14
10.0
 24
10.0
 15
10.0
 25
10.0
 16
0.0
 26
0.0
 36
1.0
 17
0.0
 27
0.0
 37
0.0
 40
297.0
 41
1.92798353909465
 42
50.0
 43
0.0
 44
0.0
 50
0.0
 51
0.0
 71
0
 72
100
 73
1
 74
3
 75
1
 76
1
 77
0
 78
0
281
0
 65
1
110
0.0
120
0.0
130
0.0
111
1.0
121
0.0
131
0.0
112
0.0
122
1.0
132
0.0
 79
0
146
0.0
  0
ENDTAB
  0
TABLE
  2
LTYPE
  5
5
100
AcDbSymbolTable
 70
21
  0
LTYPE
  5
14
100
AcDbSymbolTableRecord
100
AcDbLinetypeTableRecord
  2
ByBlock
 70
0
  3

 72
65
 73
0
 40
0.0
  0
LTYPE
  5
15
100
AcDbSymbolTableRecord
100
AcDbLinetypeTableRecord
  2
ByLayer
 70
0
  3

 72
65
 73
0
 40
0.0
  0
LTYPE
  5
16
100
AcDbSymbolTableRecord
100
AcDbLinetypeTableRecord
  2
CONTINUOUS
 70
0
  3
Solid line
 72
65
 73
0
 40
0.0
  0
LTYPE
  5
31
100
AcDbSymbolTableRecord
100
AcDbLinetypeTableRecord
  2
DOT
 70
0
  3
Dot . . . . . . . . . . . . . . . . . . . . . .
 72
65
 73
2
 40
6.3499999999999996
 49
0.0
 74
0
 49
-6.3499999999999996
 74
0
  0
LTYPE
  5
32
100
AcDbSymbolTableRecord
100
AcDbLinetypeTableRecord
  2
DOT2
 70
0
  3
Dot (.5x) .....................................
 72
65
 73
2
 40
3.1749999999999998
 49
0.0
 74
0
 49
-3.1749999999999998
 74
0
  0
LTYPE
  5
33
100
AcDbSymbolTableRecord
100
AcDbLinetypeTableRecord
  2
DOTX2
 70
0
  3
Dot (2x) .  .  .  .  .  .  .  .  .  .  .  .  .
 72
65
 73
2
 40
12.6999999999999993
 49
0.0
 74
0
 49
-12.6999999999999993
 74
0
  0
LTYPE
  5
34
100
AcDbSymbolTableRecord
100
AcDbLinetypeTableRecord
  2
DASHED
 70
0
  3
Dashed __ __ __ __ __ __ __ __ __ __ __ __ __ _
 72
65
 73
2
 40
19.0500000000000007
 49
12.6999999999999993
 74
0
 49
-6.3499999999999996
 74
0
  0
LTYPE
  5
35
100
AcDbSymbolTableRecord
100
AcDbLinetypeTableRecord
  2
DASHED2
 70
0
  3
Dashed (.5x) _ _ _ _ _ _ _ _ _ _ _ _ _ _ _ _ _
 72
65
 73
2
 40
9.5250000000000004
 49
6.3499999999999996
 74
0
 49
-3.1749999999999998
 74
0
  0
LTYPE
  5
36
100
AcDbSymbolTableRecord
100
AcDbLinetypeTableRecord
  2
DASHEDX2
 70
0
  3
Dashed (2x) ____  ____  ____  ____  ____  ___
 72
65
 73
2
 40
38.1000000000000014
 49
25.3999999999999986
 74
0
 49
-12.6999999999999993
 74
0
  0
LTYPE
  5
37
100
AcDbSymbolTableRecord
100
AcDbLinetypeTableRecord
  2
DASHDOT
 70
0
  3
Dash dot __ . __ . __ . __ . __ . __ . __ . __
 72
65
 73
4
 40
25.3999999999999986
 49
12.6999999999999993
 74
0
 49
-6.3499999999999996
 74
0
 49
0.0
 74
0
 49
-6.3499999999999996
 74
0
  0
LTYPE
  5
38
100
AcDbSymbolTableRecord
100
AcDbLinetypeTableRecord
  2
DASHDOT2
 70
0
  3
Dash dot (.5x) _._._._._._._._._._._._._._._.
 72
65
 73
4
 40
12.6999999999999993
 49
6.3499999999999996
 74
0
 49
-3.1749999999999998
 74
0
 49
0.0
 74
0
 49
-3.1749999999999998
 74
0
  0
LTYPE
  5
39
100
AcDbSymbolTableRecord
100
AcDbLinetypeTableRecord
  2
DASHDOTX2
 70
0
  3
Dash dot (2x) ____  .  ____  .  ____  .  ___
 72
65
 73
4
 40
50.7999999999999972
 49
25.3999999999999986
 74
0
 49
-12.6999999999999993
 74
0
 49
0.0
 74
0
 49
-12.6999999999999993
 74
0
  0
LTYPE
  5
3A
100
AcDbSymbolTableRecord
100
AcDbLinetypeTableRecord
  2
DIVIDE
 70
0
  3
Divide ____ . . ____ . . ____ . . ____ . . ____
 72
65
 73
6
 40
31.75
 49
12.6999999999999993
 74
0
 49
-6.3499999999999996
 74
0
 49
0.0
 74
0
 49
-6.3499999999999996
 74
0
 49
0.0
 74
0
 49
-6.3499999999999996
 74
0
  0
LTYPE
  5
3B
100
AcDbSymbolTableRecord
100
AcDbLinetypeTableRecord
  2
DIVIDE2
 70
0
  3
Divide (.5x) __..__..__..__..__..__..__..__.._
 72
65
 73
6
 40
15.875
 49
6.3499999999999996
 74
0
 49
-3.1749999999999998
 74
0
 49
0.0
 74
0
 49
-3.1749999999999998
 74
0
 49
0.0
 74
0
 49
-3.1749999999999998
 74
0
  0
LTYPE
  5
3C
100
AcDbSymbolTableRecord
100
AcDbLinetypeTableRecord
  2
DIVIDEX2
 70
0
  3
Divide (2x) ________  .  .  ________  .  .  _
 72
65
 73
6
 40
63.5
 49
25.3999999999999986
 74
0
 49
-12.6999999999999993
 74
0
 49
0.0
 74
0
 49
-12.6999999999999993
 74
0
 49
0.0
 74
0
 49
-12.6999999999999993
 74
0
  0
LTYPE
  5
3D
100
AcDbSymbolTableRecord
100
AcDbLinetypeTableRecord
  2
CENTER
 70
0
  3
Center ____ _ ____ _ ____ _ ____ _ ____ _ ____
 72
65
 73
4
 40
50.7999999999999972
 49
31.75
 74
0
 49
-6.3499999999999996
 74
0
 49
6.3499999999999996
 74
0
 49
-6.3499999999999996
 74
0
  0
LTYPE
  5
3E
100
AcDbSymbolTableRecord
100
AcDbLinetypeTableRecord
  2
CENTER2
 70
0
  3
Center (.5x) ___ _ ___ _ ___ _ ___ _ ___ _ ___
 72
65
 73
4
 40
28.5749999999999993
 49
19.0500000000000007
 74
0
 49
-3.1749999999999998
 74
0
 49
3.1749999999999998
 74
0
 49
-3.1749999999999998
 74
0
  0
LTYPE
  5
3F
100
AcDbSymbolTableRecord
100
AcDbLinetypeTableRecord
  2
CENTERX2
 70
0
  3
Center (2x) ________  __  ________  __  _____
 72
65
 73
4
 40
101.5999999999999943
 49
63.5
 74
0
 49
-12.6999999999999993
 74
0
 49
12.6999999999999993
 74
0
 49
-12.6999999999999993
 74
0
  0
LTYPE
  5
40
100
AcDbSymbolTableRecord
100
AcDbLinetypeTableRecord
  2
BORDER
 70
0
  3
Border __ __ . __ __ . __ __ . __ __ . __ __ .
 72
65
 73
6
 40
44.4500000000000028
 49
12.6999999999999993
 74
0
 49
-6.3499999999999996
 74
0
 49
12.6999999999999993
 74
0
 49
-6.3499999999999996
 74
0
 49
0.0
 74
0
 49
-6.3499999999999996
 74
0
  0
LTYPE
  5
41
100
AcDbSymbolTableRecord
100
AcDbLinetypeTableRecord
  2
BORDER2
 70
0
  3
Border (.5x) __.__.__.__.__.__.__.__.__.__.__.
 72
65
 73
6
 40
22.2250000000000014
 49
6.3499999999999996
 74
0
 49
-3.1749999999999998
 74
0
 49
6.3499999999999996
 74
0
 49
-3.1749999999999998
 74
0
 49
0.0
 74
0
 49
-3.1749999999999998
 74
0
  0
LTYPE
  5
42
100
AcDbSymbolTableRecord
100
AcDbLinetypeTableRecord
  2
BORDERX2
 70
0
  3
Border (2x) ____  ____  .  ____  ____  .  ___
 72
65
 73
6
 40
88.9000000000000057
 49
25.3999999999999986
 74
0
 49
-12.6999999999999993
 74
0
 49
25.3999999999999986
 74
0
 49
-12.6999999999999993
 74
0
 49
0.0
 74
0
 49
-12.6999999999999993
 74
0
  0
ENDTAB
  0
TABLE
  2
LAYER
  5
2
100
AcDbSymbolTable
 70
3
  0
LAYER
  5
10
100
AcDbSymbolTableRecord
100
AcDbLayerTableRecord
  2
0
 70
0
 62
7
  6
CONTINUOUS
370
-3
390
F
  0
LAYER
  5
43
100
AcDbSymbolTableRecord
100
AcDbLayerTableRecord
  2
LAYER-1
 70
0
 62
7
  6
CONTINUOUS
370
-3
390
F
  0
LAYER
  5
44
100
AcDbSymbolTableRecord
100
AcDbLayerTableRecord
  2
Defpoints
 70
0
 62
7
  6
CONTINUOUS
290
0
370
-3
390
F
  0
ENDTAB
  0
TABLE
  2
STYLE
  5
3
100
AcDbSymbolTable
 70
1
  0
STYLE
  5
11
100
AcDbSymbolTableRecord
100
AcDbTextStyleTableRecord
  2
Standard
 70
0
 40
0.0
 41
0.75
 50
0.0
 71
0
 42
2.5
  3
txt
  4

  0
ENDTAB
  0
TABLE
  2
VIEW
  5
6
100
AcDbSymbolTable
 70
0
  0
ENDTAB
  0
TABLE
  2
UCS
  5
7
100
AcDbSymbolTable
 70
0
  0
ENDTAB
  0
TABLE
  2
APPID
  5
9
100
AcDbSymbolTable
 70
1
  0
APPID
  5
12
100
AcDbSymbolTableRecord
100
AcDbRegAppTableRecord
  2
ACAD
 70
0
  0
ENDTAB
  0
TABLE
  2
DIMSTYLE
  5
A
100
AcDbSymbolTable
 70
1
100
AcDbDimStyleTable
 71
0
  0
DIMSTYLE
105
27
100
AcDbSymbolTableRecord
100
AcDbDimStyleTableRecord
  2
Standard
 41
0.18
 42
0.0625
 43
3.75
 44
0.18
 70
0
 73
0
 74
0
 77
1
 78
8
140
0.18
141
2.5
143
0.03937007874016
147
0.09
171
3
172
1
271
2
272
2
274
3
278
44
283
0
284
8
340
11
  0
ENDTAB
  0
TABLE
  2
BLOCK_RECORD
  5
1
100
AcDbSymbolTable
 70
1
  0
BLOCK_RECORD
  5
1F
100
AcDbSymbolTableRecord
100
AcDbBlockTableRecord
  2
*Model_Space
340
22
  0
BLOCK_RECORD
  5
1B
100
AcDbSymbolTableRecord
100
AcDbBlockTableRecord
  2
*Paper_Space
340
1E
  0
BLOCK_RECORD
  5
23
100
AcDbSymbolTableRecord
100
AcDbBlockTableRecord
  2
*Paper_Space0
340
26
  0
ENDTAB
  0
ENDSEC
  0
SECTION
  2
BLOCKS
  0
BLOCK
  5
20
100
AcDbEntity
  8
0
100
AcDbBlockBegin
  2
*Model_Space
 70
0
 10
0.0
 20
0.0
 30
0.0
  3
*Model_Space
  1

  0
ENDBLK
  5
21
100
AcDbEntity
  8
0
100
AcDbBlockEnd
  0
BLOCK
  5
1C
100
AcDbEntity
 67
1
  8
0
100
AcDbBlockBegin
  2
*Paper_Space
 70
0
 10
0.0
 20
0.0
 30
0.0
  3
*Paper_Space
  1

  0
ENDBLK
  5
1D
100
AcDbEntity
 67
1
  8
0
100
AcDbBlockEnd
  0
BLOCK
  5
24
100
AcDbEntity
  8
0
100
AcDbBlockBegin
  2
*Paper_Space0
 70
0
 10
0.0
 20
0.0
 30
0.0
  3
*Paper_Space0
  1

  0
ENDBLK
  5
25
100
AcDbEntity
  8
0
100
AcDbBlockEnd
  0
ENDSEC
  0
SECTION
  2
ENTITIES
  0
LWPOLYLINE
  5
45
  8
LAYER-1
 62
7
370
-1
  6
ByLayer
100
AcDbEntity
100
AcDbPolyline
 90
4
 70
1
 10
7092.9568398378605707
 20
17875.6443003242711711
 10
1689.0001598378619292
 20
17875.6443003242711711
 10
1689.0001598378619292
 20
22528.4239203242686926
 10
7092.9568398378623897
 20
22528.4239203242686926
  0
LWPOLYLINE
  5
46
  8
LAYER-1
 62
7
370
-1
  6
ByLayer
100
AcDbEntity
100
AcDbPolyline
 90
4
 70
1
 10
10834.955959837860064
 20
752.9988403242678032
 10
1734.6668198378611123
 20
752.9988403242678032
 10
1734.6668198378611123
 20
4479.9230603242649522
 10
10834.955959837860064
 20
4479.9230603242649522
  0
LWPOLYLINE
  5
47
  8
LAYER-1
 62
7
370
-1
  6
ByLayer
100
AcDbEntity
100
AcDbPolyline
 90
4
 70
1
 10
10834.955959837860064
 20
752.9988403242678032
 10
1734.6668198378611123
 20
752.9988403242678032
 10
1734.6668198378629313
 20
22527.6517603242682526
 10
10834.955959837860064
 20
22527.6517603242609766
  0
LWPOLYLINE
  5
48
  8
LAYER-1
 62
7
370
-1
  6
ByLayer
100
AcDbEntity
100
AcDbPolyline
 90
4
 70
1
 10
10834.955959837860064
 20
752.9988403242678032
 10
1734.6668198378611123
 20
752.9988403242678032
 10
1734.6668198378629313
 20
22531.9951603242698184
 10
10834.955959837860064
 20
22531.9951603242698184
  0
LWPOLYLINE
  5
49
  8
LAYER-1
 62
7
370
-1
  6
ByLayer
100
AcDbEntity
100
AcDbPolyline
 90
4
 70
1
 10
3753.4918398378599704
 20
2875.2933003242651466
 10
3753.4918398378599704
 20
3735.4770003242629173
 10
5583.8844198378601504
 20
3735.4770003242629173
 10
5583.8844198378601504
 20
2875.2933003242651466
  0
LWPOLYLINE
  5
4A
  8
LAYER-1
 62
7
370
-1
  6
ByLayer
100
AcDbEntity
100
AcDbPolyline
 90
4
 70
1
 10
1738.911159837859941
 20
2655.3674003242667823
 10
1738.911159837859941
 20
826.9534803242640919
 10
1655.8023598378599672
 20
826.9534803242640919
 10
1655.8023598378599672
 20
2655.3674003242667823
  0
ARC
  5
4B
100
AcDbEntity
  8
LAYER-1
 62
7
370
-1
  6
CONTINUOUS
100
AcDbCircle
 10
1738.911159837859941
 20
2572.2586003242649895
 30
0.0
 40
831.0981600000000071
100
AcDbArc
 50
270.0
 51
8.530716000031374
  0
ARC
  5
4C
100
AcDbEntity
  8
LAYER-1
 62
7
370
-1
  6
CONTINUOUS
100
AcDbCircle
 10
1738.911159837859941
 20
910.0622803242658847
 30
0.0
 40
831.0981600000000071
100
AcDbArc
 50
354.2894289998944828
 51
90.0
  0
LWPOLYLINE
  5
4D
  8
LAYER-1
 62
7
370
-1
  6
ByLayer
100
AcDbEntity
100
AcDbPolyline
 90
4
 70
1
 10
6630.6463598378613824
 20
22508.7744803242712806
 10
4802.23243983786233
 20
22508.7744803242712806
 10
4802.23243983786233
 20
22591.8832803242694354
 10
6630.6463598378613824
 20
22591.8832803242694354
  0
ARC
  5
4E
100
AcDbEntity
  8
LAYER-1
 62
7
370
-1
  6
CONTINUOUS
100
AcDbCircle
 10
6547.5375598378623181
 20
22508.7744803242712806
 30
0.0
 40
831.0981600000000071
100
AcDbArc
 50
180.0
 51
278.5307160000346016
  0
ARC
  5
4F
100
AcDbEntity
  8
LAYER-1
 62
7
370
-1
  6
CONTINUOUS
100
AcDbCircle
 10
4885.3412398378623038
 20
22508.7744803242712806
 30
0.0
 40
831.0981600000000071
100
AcDbArc
 50
264.2894290000028263
 51
0.0
  0
LWPOLYLINE
  5
50
  8
LAYER-1
 62
7
370
-1
  6
ByLayer
100
AcDbEntity
100
AcDbPolyline
 90
4
 70
1
 10
2331.2239198378629226
 20
21990.8075203242697171
 10
1781.1056398378620997
 20
21990.8075203242697171
 10
1781.1056398378620997
 20
22190.8503003242694831
 10
2331.2239198378629226
 20
22190.8503003242694831
  0
LWPOLYLINE
  5
51
  8
LAYER-1
 62
7
370
-1
  6
ByLayer
100
AcDbEntity
100
AcDbPolyline
 90
4
 70
1
 10
10250.7788198378602829
 20
763.0572403242622386
 10
9300.5749798378583364
 20
763.0572403242622386
 10
9300.5749798378601554
 20
1313.1755203242651078
 10
10250.7788198378602829
 20
1313.1755203242651078
  0
LWPOLYLINE
  5
52
  8
LAYER-1
 62
7
370
-1
  6
ByLayer
100
AcDbEntity
100
AcDbPolyline
 90
4
 70
1
 10
10836.6171198378597182
 20
2254.4487203242638316
 10
10836.6171198378597182
 20
1304.2448803242659778
 10
10286.4988398378591228
 20
1304.2448803242659778
 10
10286.4988398378591228
 20
2254.4487203242638316
  0
LWPOLYLINE
  5
53
  8
LAYER-1
 62
7
370
-1
  6
ByLayer
100
AcDbEntity
100
AcDbPolyline
 90
4
 70
1
 10
2499.1153798378618376
 20
20713.748860324270936
 10
1698.9442598378630009
 20
20713.748860324270936
 10
1698.9442598378630009
 20
21964.0156003242700535
 10
2499.1153798378618376
 20
21964.0156003242700535
  0
LWPOLYLINE
  5
54
  8
LAYER-1
 62
7
370
-1
  6
ByLayer
100
AcDbEntity
100
AcDbPolyline
 90
140
 70
1
 10
2393.7383998378631986
 20
21463.9099203242694784
 10
2393.7383998378631986
 20
21263.8671403242697124
 10
2393.7383998378631986
 20
21263.8671403242697124
 10
2413.3852998378620214
 20
21197.7839603242682642
 10
2413.3852998378620214
 20
21197.7839603242682642
 10
2413.3852998378620214
 20
21197.7839603242682642
 10
2413.3852998378620214
 20
21197.7839603242682642
 10
2413.3852998378620214
 20
21197.7839603242682642
 10
2413.3852998378620214
 20
21197.7839603242682642
 10
2413.3852998378620214
 20
21197.7839603242682642
 10
2413.3852998378620214
 20
21162.0614003242699255
 10
2413.3852998378620214
 20
21162.0614003242699255
 10
2413.3852998378620214
 20
21162.0614003242699255
 10
2413.3852998378620214
 20
21162.0614003242699255
 10
2413.3852998378620214
 20
21162.0614003242699255
 10
2413.3852998378620214
 20
21162.0614003242699255
 10
2413.3852998378620214
 20
21162.0614003242699255
 10
2413.3852998378620214
 20
21162.0614003242699255
 10
2413.3852998378620214
 20
21162.0614003242699255
 10
2413.3852998378620214
 20
21126.3388403242715867
 10
2377.6627398378618636
 20
21126.3388403242715867
 10
2377.6627398378618636
 20
21126.3388403242715867
 10
2377.6627398378618636
 20
21126.3388403242715867
 10
2377.6627398378618636
 20
21126.3388403242715867
 10
2377.6627398378618636
 20
21126.3388403242715867
 10
2377.6627398378618636
 20
21126.3388403242715867
 10
2377.6627398378618636
 20
21126.3388403242715867
 10
2377.6627398378618636
 20
21126.3388403242715867
 10
2341.9401798378621606
 20
21126.3388403242715867
 10
2341.9401798378621606
 20
21126.3388403242715867
 10
2341.9401798378621606
 20
21126.3388403242715867
 10
2341.9401798378621606
 20
21126.3388403242715867
 10
2341.9401798378621606
 20
21126.3388403242715867
 10
2341.9401798378621606
 20
21126.3388403242715867
 10
2293.715739837862202
 20
21163.8444803242709895
 10
2293.715739837862202
 20
21163.8444803242709895
 10
1993.650299837861894
 20
21163.8444803242709895
 10
1993.650299837861894
 20
21163.8444803242709895
 10
2020.4422198378629218
 20
21162.0614003242699255
 10
2020.4422198378629218
 20
21162.0614003242699255
 10
2020.4422198378629218
 20
21162.0614003242699255
 10
2020.4422198378629218
 20
21162.0614003242699255
 10
2020.4422198378629218
 20
21162.0614003242699255
 10
2020.4422198378629218
 20
21162.0614003242699255
 10
2020.4422198378629218
 20
21162.0614003242699255
 10
1984.7221998378629451
 20
21162.0614003242699255
 10
1984.7221998378629451
 20
21162.0614003242699255
 10
1984.7221998378629451
 20
21162.0614003242699255
 10
1984.7221998378629451
 20
21162.0614003242699255
 10
1984.7221998378629451
 20
21162.0614003242699255
 10
1984.7221998378629451
 20
21162.0614003242699255
 10
1984.7221998378629451
 20
21162.0614003242699255
 10
1984.7221998378629451
 20
21162.0614003242699255
 10
1984.7221998378629451
 20
21162.0614003242699255
 10
1948.9996398378630147
 20
21162.0614003242699255
 10
1948.9996398378630147
 20
21197.7839603242682642
 10
1948.9996398378630147
 20
21197.7839603242682642
 10
1948.9996398378630147
 20
21197.7839603242682642
 10
1948.9996398378630147
 20
21197.7839603242682642
 10
1948.9996398378630147
 20
21197.7839603242682642
 10
1948.9996398378630147
 20
21197.7839603242682642
 10
1948.9996398378630147
 20
21197.7839603242682642
 10
1948.9996398378630147
 20
21197.7839603242682642
 10
1948.9996398378630147
 20
21233.5039803242689231
 10
1948.9996398378630147
 20
21233.5039803242689231
 10
1948.9996398378630147
 20
21233.5039803242689231
 10
1948.9996398378630147
 20
21233.5039803242689231
 10
1948.9996398378630147
 20
21233.5039803242689231
 10
1948.9996398378630147
 20
21233.5039803242689231
 10
1893.6301798378628973
 20
21263.8671403242697124
 10
1893.6301798378628973
 20
21263.8671403242697124
 10
1893.6301798378628973
 20
21463.9099203242694784
 10
1893.6301798378628973
 20
21463.9099203242694784
 10
1948.9996398378630147
 20
21447.8368003242685518
 10
1948.9996398378630147
 20
21447.8368003242685518
 10
1948.9996398378630147
 20
21447.8368003242685518
 10
1948.9996398378630147
 20
21447.8368003242685518
 10
1948.9996398378630147
 20
21447.8368003242685518
 10
1948.9996398378630147
 20
21447.8368003242685518
 10
1948.9996398378630147
 20
21447.8368003242685518
 10
1948.9996398378630147
 20
21483.5593603242705285
 10
1948.9996398378630147
 20
21483.5593603242705285
 10
1948.9996398378630147
 20
21483.5593603242705285
 10
1948.9996398378630147
 20
21483.5593603242705285
 10
1948.9996398378630147
 20
21483.5593603242705285
 10
1948.9996398378630147
 20
21483.5593603242705285
 10
1948.9996398378630147
 20
21483.5593603242705285
 10
1948.9996398378630147
 20
21483.5593603242705285
 10
1948.9996398378630147
 20
21483.5593603242705285
 10
1948.9996398378630147
 20
21519.2793803242711874
 10
1984.7221998378629451
 20
21519.2793803242711874
 10
1984.7221998378629451
 20
21519.2793803242711874
 10
1984.7221998378629451
 20
21519.2793803242711874
 10
1984.7221998378629451
 20
21519.2793803242711874
 10
1984.7221998378629451
 20
21519.2793803242711874
 10
1984.7221998378629451
 20
21519.2793803242711874
 10
1984.7221998378629451
 20
21519.2793803242711874
 10
1984.7221998378629451
 20
21519.2793803242711874
 10
2020.4422198378629218
 20
21519.2793803242711874
 10
2020.4422198378629218
 20
21519.2793803242711874
 10
2020.4422198378629218
 20
21519.2793803242711874
 10
2020.4422198378629218
 20
21519.2793803242711874
 10
2020.4422198378629218
 20
21519.2793803242711874
 10
2020.4422198378629218
 20
21519.2793803242711874
 10
1993.650299837861894
 20
21563.9300403242705215
 10
1993.650299837861894
 20
21563.9300403242705215
 10
2293.715739837862202
 20
21563.9300403242705215
 10
2293.715739837862202
 20
21563.9300403242705215
 10
2341.9401798378621606
 20
21519.2793803242711874
 10
2341.9401798378621606
 20
21519.2793803242711874
 10
2341.9401798378621606
 20
21519.2793803242711874
 10
2341.9401798378621606
 20
21519.2793803242711874
 10
2341.9401798378621606
 20
21519.2793803242711874
 10
2341.9401798378621606
 20
21519.2793803242711874
 10
2341.9401798378621606
 20
21519.2793803242711874
 10
2377.6627398378618636
 20
21519.2793803242711874
 10
2377.6627398378618636
 20
21519.2793803242711874
 10
2377.6627398378618636
 20
21519.2793803242711874
 10
2377.6627398378618636
 20
21519.2793803242711874
 10
2377.6627398378618636
 20
21519.2793803242711874
 10
2377.6627398378618636
 20
21519.2793803242711874
 10
2377.6627398378618636
 20
21519.2793803242711874
 10
2377.6627398378618636
 20
21519.2793803242711874
 10
2377.6627398378618636
 20
21519.2793803242711874
 10
2413.3852998378620214
 20
21519.2793803242711874
 10
2413.3852998378620214
 20
21483.5593603242705285
 10
2413.3852998378620214
 20
21483.5593603242705285
 10
2413.3852998378620214
 20
21483.5593603242705285
 10
2413.3852998378620214
 20
21483.5593603242705285
 10
2413.3852998378620214
 20
21483.5593603242705285
 10
2413.3852998378620214
 20
21483.5593603242705285
 10
2413.3852998378620214
 20
21483.5593603242705285
 10
2413.3852998378620214
 20
21483.5593603242705285
 10
2413.3852998378620214
 20
21447.8368003242685518
 10
2413.3852998378620214
 20
21447.8368003242685518
 10
2413.3852998378620214
 20
21447.8368003242685518
 10
2413.3852998378620214
 20
21447.8368003242685518
 10
2413.3852998378620214
 20
21447.8368003242685518
 10
2413.3852998378620214
 20
21447.8368003242685518
 10
2393.7383998378631986
 20
21463.9099203242694784
  0
LWPOLYLINE
  5
55
  8
LAYER-1
 62
7
370
-1
  6
ByLayer
100
AcDbEntity
100
AcDbPolyline
 90
4
 70
1
 10
4485.2556798378591338
 20
754.1266003242672014
 10
2654.8630998378607728
 20
754.1266003242672014
 10
2654.8630998378607728
 20
954.1693803242633294
 10
4485.2556798378591338
 20
954.1693803242633294
  0
LINE
  5
56
100
AcDbEntity
100
AcDbLine
  8
LAYER-1
 62
15
370
-1
  6
CONTINUOUS
 10
6211.9679998378605887
 20
22407.3548203242717136
 30
0.0
 11
6211.9679998378587698
 21
304.6304203242652875
 31
0.0
  0
LINE
  5
57
100
AcDbEntity
100
AcDbLine
  8
LAYER-1
 62
8
370
-1
  6
CONTINUOUS
 10
10636.1298398378603451
 20
22607.3976003242714796
 30
0.0
 11
10636.1298398378603451
 21
504.6732003242651103
 31
0.0
  0
LINE
  5
58
100
AcDbEntity
100
AcDbLine
  8
LAYER-1
 62
7
370
-1
  6
ByLayer
 10
11035.0088998378596443
 20
22531.9951603242698184
 30
0.0
 11
11436.7606998378596472
 21
22531.9951603242698184
 31
0.0
  0
LWPOLYLINE
  5
59
  8
LAYER-1
 62
7
370
-1
  6
ByLayer
100
AcDbEntity
100
AcDbPolyline
 90
5
 70
1
 10
11136.6774798378592095
 20
22531.9951603242698184
 10
11029.5123398378600541
 20
22210.4972003242692153
 10
11136.6774798378592095
 20
22210.4972003242692153
 10
11243.8426198378601839
 20
22210.4972003242692153
 10
11136.6774798378592095
 20
22531.9951603242698184
  0
LWPOLYLINE
  5
5A
  8
LAYER-1
 62
7
370
-1
  6
ByLayer
100
AcDbEntity
100
AcDbPolyline
 90
4
 70
1
 10
10888.4102598378594848
 20
2229.4424203242670046
 10
10803.5691798378593376
 20
2229.4424203242670046
 10
10803.5691798378593376
 20
3752.0911403242639608
 10
10888.4102598378594848
 20
3752.0911403242639608
  0
LWPOLYLINE
  5
5B
  8
LAYER-1
 62
7
370
-1
  6
ByLayer
100
AcDbEntity
100
AcDbPolyline
 90
4
 70
1
 10
10888.4102598378594848
 20
4546.9028603242659301
 10
10803.5691798378593376
 20
4546.9028603242659301
 10
10803.5691798378593376
 20
6069.5490403242656612
 10
10888.4102598378594848
 20
6069.5490403242656612
  0
LWPOLYLINE
  5
5C
  8
LAYER-1
 62
7
370
-1
  6
ByLayer
100
AcDbEntity
100
AcDbPolyline
 90
4
 70
1
 10
10888.4102598378594848
 20
6900.083320324266424
 10
10803.5691798378593376
 20
6900.083320324266424
 10
10803.5691798378593376
 20
8422.7320403242647444
 10
10888.4102598378594848
 20
8422.7320403242647444
  0
LWPOLYLINE
  5
5D
  8
LAYER-1
 62
7
370
-1
  6
ByLayer
100
AcDbEntity
100
AcDbPolyline
 90
4
 70
1
 10
10888.4102598378594848
 20
9222.0090803242655966
 10
10803.5691798378593376
 20
9222.0090803242655966
 10
10803.5691798378593376
 20
10744.6552603242707846
 10
10888.4102598378594848
 20
10744.6552603242707846
  0
LWPOLYLINE
  5
5E
  8
LAYER-1
 62
7
370
-1
  6
ByLayer
100
AcDbEntity
100
AcDbPolyline
 90
4
 70
1
 10
10888.4102598378594848
 20
11535.0042003242706414
 10
10803.5691798378593376
 20
11535.0042003242706414
 10
10803.5691798378593376
 20
13057.6503803242703725
 10
10888.4102598378594848
 20
13057.6503803242703725
  0
LWPOLYLINE
  5
5F
  8
LAYER-1
 62
7
370
-1
  6
ByLayer
100
AcDbEntity
100
AcDbPolyline
 90
4
 70
1
 10
10888.4102598378594848
 20
13914.9765803242698894
 10
10803.5691798378593376
 20
13914.9765803242698894
 10
10803.5691798378593376
 20
15437.6227603242696205
 10
10888.4102598378594848
 20
15437.6227603242696205
  0
LWPOLYLINE
  5
60
  8
LAYER-1
 62
7
370
-1
  6
ByLayer
100
AcDbEntity
100
AcDbPolyline
 90
4
 70
1
 10
10888.4102598378594848
 20
16236.9023403242699715
 10
10803.5691798378593376
 20
16236.9023403242699715
 10
10803.5691798378593376
 20
17759.5485203242606076
 10
10888.4102598378594848
 20
17759.5485203242606076
  0
LWPOLYLINE
  5
61
  8
LAYER-1
 62
7
370
-1
  6
ByLayer
100
AcDbEntity
100
AcDbPolyline
 90
4
 70
1
 10
10888.4102598378594848
 20
18558.8255603242687357
 10
10803.5691798378593376
 20
18558.8255603242687357
 10
10803.5691798378593376
 20
20081.4742803242697846
 10
10888.4102598378594848
 20
20081.4742803242697846
  0
LWPOLYLINE
  5
62
  8
LAYER-1
 62
7
370
-1
  6
ByLayer
100
AcDbEntity
100
AcDbPolyline
 90
4
 70
1
 10
10888.4102598378594848
 20
20871.8206803242610476
 10
10803.5691798378593376
 20
20871.8206803242610476
 10
10803.5691798378593376
 20
22394.4668603242607787
 10
10888.4102598378594848
 20
22394.4668603242607787
  0
LWPOLYLINE
  5
63
  8
LAYER-1
 62
7
370
-1
  6
ByLayer
100
AcDbEntity
100
AcDbPolyline
 90
12
 70
1
 10
10832.7232998378603952
 20
4213.1925803242666007
 10
10832.7232998378603952
 20
3982.2024403242648987
 10
10803.5691798378593376
 20
3982.2024403242648987
 10
10803.5691798378593376
 20
4081.0490803242651054
 10
10386.0693798378597421
 20
4081.0490803242651054
 10
10386.0693798378597421
 20
3982.2024403242648987
 10
10357.0473398378599086
 20
3982.2024403242648987
 10
10357.0473398378599086
 20
4210.5509803242639464
 10
10386.1989198378596484
 20
4213.1925803242666007
 10
10386.1989198378596484
 20
4115.4076603242647252
 10
10803.5691798378593376
 20
4115.4076603242647252
 10
10803.5691798378593376
 20
4213.1925803242666007
  0
LWPOLYLINE
  5
64
  8
LAYER-1
 62
7
370
-1
  6
ByLayer
100
AcDbEntity
100
AcDbPolyline
 90
4
 70
1
 10
10354.8146798378602398
 20
3954.3615003242671264
 10
10050.74873983785983
 20
3954.3615003242671264
 10
10050.74873983785983
 20
4258.4274403242670815
 10
10354.8146798378602398
 20
4258.4274403242670815
  0
CIRCLE
  5
65
100
AcDbEntity
100
AcDbCircle
  8
LAYER-1
 62
7
370
-1
  6
ByLayer
 10
10200.7636798378607637
 20
4107.0764603242641897
 30
0.0
 40
71.7575399999999917
  0
LWPOLYLINE
  5
66
  8
LAYER-1
 62
7
370
-1
  6
ByLayer
100
AcDbEntity
100
AcDbPolyline
 90
4
 70
1
 10
8977.2863198378599918
 20
3954.3615003242671264
 10
8673.2229198378590809
 20
3954.3615003242671264
 10
8673.2229198378590809
 20
4258.4274403242670815
 10
8977.2863198378599918
 20
4258.4274403242670815
  0
CIRCLE
  5
67
100
AcDbEntity
100
AcDbCircle
  8
LAYER-1
 62
7
370
-1
  6
ByLayer
 10
8823.2353198378586967
 20
4107.0764603242641897
 30
0.0
 40
71.7575399999999917
  0
LWPOLYLINE
  5
68
  8
LAYER-1
 62
7
370
-1
  6
ByLayer
100
AcDbEntity
100
AcDbPolyline
 90
4
 70
1
 10
8673.6496398378585582
 20
3954.3615003242671264
 10
8369.5862398378594662
 20
3954.3615003242671264
 10
8369.5862398378594662
 20
4258.4274403242670815
 10
8673.6496398378585582
 20
4258.4274403242670815
  0
CIRCLE
  5
69
100
AcDbEntity
100
AcDbCircle
  8
LAYER-1
 62
7
370
-1
  6
ByLayer
 10
8519.6011798378603999
 20
4107.0764603242641897
 30
0.0
 40
71.7575399999999917
  0
LWPOLYLINE
  5
6A
  8
LAYER-1
 62
7
370
-1
  6
ByLayer
100
AcDbEntity
100
AcDbPolyline
 90
4
 70
1
 10
7151.0034598378597366
 20
3954.3615003242671264
 10
6846.9400598378588256
 20
3954.3615003242671264
 10
6846.9400598378597351
 20
4258.4274403242670815
 10
7151.0034598378597366
 20
4258.4274403242670815
  0
CIRCLE
  5
6B
100
AcDbEntity
100
AcDbCircle
  8
LAYER-1
 62
7
370
-1
  6
ByLayer
 10
6996.952459837859351
 20
4107.0764603242641897
 30
0.0
 40
71.7575399999999917
  0
LWPOLYLINE
  5
6C
  8
LAYER-1
 62
7
370
-1
  6
ByLayer
100
AcDbEntity
100
AcDbPolyline
 90
4
 70
1
 10
6847.3667798378601219
 20
3954.3615003242671264
 10
6543.3033798378583015
 20
3954.3615003242671264
 10
6543.303379837859211
 20
4258.4274403242670815
 10
6847.3667798378610314
 20
4258.4274403242670815
  0
CIRCLE
  5
6D
100
AcDbEntity
100
AcDbCircle
  8
LAYER-1
 62
7
370
-1
  6
ByLayer
 10
6693.3157798378597363
 20
4107.0764603242641897
 30
0.0
 40
71.7575399999999917
  0
LWPOLYLINE
  5
6E
  8
LAYER-1
 62
7
370
-1
  6
ByLayer
100
AcDbEntity
100
AcDbPolyline
 90
4
 70
1
 10
5313.5572998378593184
 20
3954.3615003242671264
 10
5009.4938998378584074
 20
3954.3615003242671264
 10
5009.4938998378593169
 20
4258.4274403242670815
 10
5313.5572998378602279
 20
4258.4274403242670815
  0
CIRCLE
  5
6F
100
AcDbEntity
100
AcDbCircle
  8
LAYER-1
 62
7
370
-1
  6
ByLayer
 10
5159.5062998378607517
 20
4107.0764603242641897
 30
0.0
 40
71.7575399999999917
  0
LWPOLYLINE
  5
70
  8
LAYER-1
 62
7
370
-1
  6
ByLayer
100
AcDbEntity
100
AcDbPolyline
 90
4
 70
1
 10
5009.9206198378587942
 20
3954.3615003242671264
 10
4705.8572198378587927
 20
3954.3615003242671264
 10
4705.8572198378597022
 20
4258.4274403242670815
 10
5009.9206198378597037
 20
4258.4274403242670815
  0
CIRCLE
  5
71
100
AcDbEntity
100
AcDbCircle
  8
LAYER-1
 62
7
370
-1
  6
ByLayer
 10
4855.8696198378602276
 20
4107.0764603242641897
 30
0.0
 40
71.7575399999999917
  0
LWPOLYLINE
  5
72
  8
LAYER-1
 62
7
370
-1
  6
ByLayer
100
AcDbEntity
100
AcDbPolyline
 90
4
 70
1
 10
3634.6274598378590781
 20
3954.3615003242671264
 10
3330.5615198378591231
 20
3954.3615003242671264
 10
3330.5615198378600326
 20
4258.4274403242670815
 10
3634.6274598378599876
 20
4258.4274403242670815
  0
CIRCLE
  5
73
100
AcDbEntity
100
AcDbCircle
  8
LAYER-1
 62
7
370
-1
  6
ByLayer
 10
3480.5764598378600567
 20
4107.0764603242641897
 30
0.0
 40
71.7575399999999917
  0
LWPOLYLINE
  5
74
  8
LAYER-1
 62
7
370
-1
  6
ByLayer
100
AcDbEntity
100
AcDbPolyline
 90
4
 70
1
 10
3330.9907798378590087
 20
3954.3615003242671264
 10
3026.9273798378599167
 20
3954.3615003242671264
 10
3026.9273798378599167
 20
4258.4274403242670815
 10
3330.9907798378599182
 20
4258.4274403242670815
  0
CIRCLE
  5
75
100
AcDbEntity
100
AcDbCircle
  8
LAYER-1
 62
7
370
-1
  6
ByLayer
 10
3176.9397798378608968
 20
4107.0764603242641897
 30
0.0
 40
71.7575399999999917
  0
LWPOLYLINE
  5
76
  8
LAYER-1
 62
7
370
-1
  6
ByLayer
100
AcDbEntity
100
AcDbPolyline
 90
4
 70
1
 10
2027.1401998378610188
 20
3954.3615003242671264
 10
1723.0767998378610173
 20
3954.3615003242671264
 10
1723.0767998378610173
 20
4258.4274403242670815
 10
2027.1401998378610188
 20
4258.4274403242670815
  0
CIRCLE
  5
77
100
AcDbEntity
100
AcDbCircle
  8
LAYER-1
 62
7
370
-1
  6
ByLayer
 10
1873.0891998378610879
 20
4107.0764603242641897
 30
0.0
 40
71.7575399999999917
  0
CIRCLE
  5
78
100
AcDbEntity
100
AcDbCircle
  8
LAYER-1
 62
7
370
-1
  6
ByLayer
 10
6775.6320998378623699
 20
21376.5923403242704808
 30
0.0
 40
69.86524
  0
CIRCLE
  5
79
100
AcDbEntity
100
AcDbCircle
  8
LAYER-1
 62
7
370
-1
  6
ByLayer
 10
5721.3060398378620448
 20
21376.5923403242704808
 30
0.0
 40
69.86524
  0
CIRCLE
  5
7A
100
AcDbEntity
100
AcDbCircle
  8
LAYER-1
 62
7
370
-1
  6
ByLayer
 10
4666.9799798378626292
 20
21376.5923403242704808
 30
0.0
 40
69.86524
  0
CIRCLE
  5
7B
100
AcDbEntity
100
AcDbCircle
  8
LAYER-1
 62
7
370
-1
  6
ByLayer
 10
6967.6357798378621737
 20
21626.6451803242707683
 30
0.0
 40
69.86524
  0
LWPOLYLINE
  5
7C
  8
LAYER-1
 62
7
370
-1
  6
ByLayer
100
AcDbEntity
100
AcDbPolyline
 90
4
 70
1
 10
4637.0740198378625792
 20
22229.2525603242684156
 10
1689.0001598378619292
 20
22229.2525603242684156
 10
1689.0001598378619292
 20
22528.4239203242686926
 10
4637.0740198378625792
 20
22528.4239203242686926
  0
LWPOLYLINE
  5
7D
  8
LAYER-1
 62
7
370
-1
  6
ByLayer
100
AcDbEntity
100
AcDbPolyline
 90
4
 70
1
 10
6105.0416198378607078
 20
17009.3874603242693411
 10
2575.2290198378609603
 20
17009.3874603242693411
 10
2575.2290198378609603
 20
17830.9911003242705192
 10
6105.0416198378607078
 20
17830.9911003242705192
  0
LWPOLYLINE
  5
7E
  8
LAYER-1
 62
7
370
-1
  6
ByLayer
100
AcDbEntity
100
AcDbPolyline
 90
4
 70
1
 10
6105.0416198378607078
 20
17268.3709403242683038
 10
2575.2290198378609603
 20
17268.3709403242683038
 10
2575.2290198378609603
 20
17572.0076203242715565
 10
6105.0416198378607078
 20
17572.0076203242715565
  0
LWPOLYLINE
  5
7F
  8
LAYER-1
 62
7
370
-1
  6
ByLayer
100
AcDbEntity
100
AcDbPolyline
 90
4
 70
1
 10
6105.0416198378607078
 20
17572.0076203242715565
 10
2575.2290198378609603
 20
17572.0076203242715565
 10
2575.2290198378609603
 20
17614.4281603242707206
 10
6105.0416198378607078
 20
17614.4281603242707206
  0
LWPOLYLINE
  5
80
  8
LAYER-1
 62
7
370
-1
  6
ByLayer
100
AcDbEntity
100
AcDbPolyline
 90
4
 70
1
 10
6105.0416198378607078
 20
17225.9529403242704575
 10
2575.2290198378609603
 20
17225.9529403242704575
 10
2575.2290198378609603
 20
17268.3709403242683038
 10
6105.0416198378607078
 20
17268.3709403242683038
  0
LWPOLYLINE
  5
81
  8
LAYER-1
 62
7
370
-1
  6
ByLayer
100
AcDbEntity
100
AcDbPolyline
 90
4
 70
1
 10
7035.4436198378589324
 20
2884.2239403242638218
 10
7035.4436198378589324
 20
3744.4076403242647757
 10
8865.8336598378591589
 20
3744.4076403242647757
 10
8865.8336598378591589
 20
2884.2239403242638218
  0
LWPOLYLINE
  5
82
  8
LAYER-1
 62
7
370
-1
  6
ByLayer
100
AcDbEntity
100
AcDbPolyline
 90
140
 70
1
 10
8213.7318398378592974
 20
2818.8545003242620623
 10
8213.7318398378592974
 20
2452.7058803242648537
 10
8213.7318398378592974
 20
2452.7058803242648537
 10
8236.0558998378601245
 20
2408.0526803242610185
 10
8236.0558998378601245
 20
2408.0526803242610185
 10
8236.0558998378601245
 20
2408.0526803242610185
 10
8236.0558998378601245
 20
2408.0526803242610185
 10
8236.0558998378601245
 20
2408.0526803242610185
 10
8236.0558998378601245
 20
2408.0526803242610185
 10
8236.0558998378601245
 20
2408.0526803242610185
 10
8236.0558998378601245
 20
2408.0526803242610185
 10
8236.0558998378601245
 20
2408.0526803242610185
 10
8236.0558998378601245
 20
2408.0526803242610185
 10
8236.0558998378601245
 20
2408.0526803242610185
 10
8236.0558998378601245
 20
2408.0526803242610185
 10
8236.0558998378601245
 20
2408.0526803242610185
 10
8236.0558998378601245
 20
2408.0526803242610185
 10
8236.0558998378601245
 20
2408.0526803242610185
 10
8236.0558998378601245
 20
2408.0526803242610185
 10
8236.0558998378601245
 20
2408.0526803242610185
 10
8236.0558998378601245
 20
2408.0526803242610185
 10
8236.0558998378601245
 20
2408.0526803242610185
 10
8236.0558998378601245
 20
2408.0526803242610185
 10
8236.0558998378601245
 20
2408.0526803242610185
 10
8236.0558998378601245
 20
2408.0526803242610185
 10
8236.0558998378601245
 20
2372.330120324265863
 10
8236.0558998378601245
 20
2372.330120324265863
 10
8236.0558998378601245
 20
2372.330120324265863
 10
8236.0558998378601245
 20
2372.330120324265863
 10
8236.0558998378601245
 20
2372.330120324265863
 10
8236.0558998378601245
 20
2372.330120324265863
 10
8236.0558998378601245
 20
2372.330120324265863
 10
8200.3358798378594656
 20
2372.330120324265863
 10
8200.3358798378594656
 20
2372.330120324265863
 10
8173.5439598378588926
 20
2412.5180003242639941
 10
8173.5439598378588926
 20
2412.5180003242639941
 10
7807.3953398378589554
 20
2412.5180003242639941
 10
7807.3953398378589554
 20
2412.5180003242639941
 10
7807.3953398378589554
 20
2408.0526803242610185
 10
7807.3953398378589554
 20
2408.0526803242610185
 10
7807.3953398378589554
 20
2408.0526803242610185
 10
7807.3953398378589554
 20
2408.0526803242610185
 10
7807.3953398378589554
 20
2408.0526803242610185
 10
7807.3953398378589554
 20
2408.0526803242610185
 10
7807.3953398378589554
 20
2408.0526803242610185
 10
7807.3953398378589554
 20
2408.0526803242610185
 10
7807.3953398378589554
 20
2408.0526803242610185
 10
7807.3953398378589554
 20
2408.0526803242610185
 10
7807.3953398378589554
 20
2408.0526803242610185
 10
7807.3953398378589554
 20
2408.0526803242610185
 10
7807.3953398378589554
 20
2408.0526803242610185
 10
7807.3953398378589554
 20
2408.0526803242610185
 10
7807.3953398378589554
 20
2408.0526803242610185
 10
7807.3953398378589554
 20
2408.0526803242610185
 10
7807.3953398378589554
 20
2408.0526803242610185
 10
7807.3953398378589554
 20
2408.0526803242610185
 10
7807.3953398378589554
 20
2408.0526803242610185
 10
7807.3953398378589554
 20
2408.0526803242610185
 10
7807.3953398378589554
 20
2408.0526803242610185
 10
7807.3953398378589554
 20
2408.0526803242610185
 10
7771.6727798378597072
 20
2408.0526803242610185
 10
7771.6727798378597072
 20
2408.0526803242610185
 10
7771.6727798378597072
 20
2408.0526803242610185
 10
7771.6727798378597072
 20
2408.0526803242610185
 10
7771.6727798378597072
 20
2408.0526803242610185
 10
7771.6727798378597072
 20
2408.0526803242610185
 10
7771.6727798378597072
 20
2408.0526803242610185
 10
7771.6727798378597072
 20
2443.775240324267088
 10
7771.6727798378597072
 20
2443.775240324267088
 10
7767.2074598378585506
 20
2452.7058803242648537
 10
7767.2074598378585506
 20
2452.7058803242648537
 10
7767.2074598378585506
 20
2818.8545003242620623
 10
7767.2074598378585506
 20
2818.8545003242620623
 10
7807.3953398378589554
 20
2800.9932203242638025
 10
7807.3953398378589554
 20
2800.9932203242638025
 10
7807.3953398378589554
 20
2800.9932203242638025
 10
7807.3953398378589554
 20
2800.9932203242638025
 10
7807.3953398378589554
 20
2800.9932203242638025
 10
7807.3953398378589554
 20
2800.9932203242638025
 10
7807.3953398378589554
 20
2800.9932203242638025
 10
7807.3953398378589554
 20
2800.9932203242638025
 10
7807.3953398378589554
 20
2800.9932203242638025
 10
7807.3953398378589554
 20
2800.9932203242638025
 10
7807.3953398378589554
 20
2800.9932203242638025
 10
7807.3953398378589554
 20
2800.9932203242638025
 10
7807.3953398378589554
 20
2800.9932203242638025
 10
7807.3953398378589554
 20
2800.9932203242638025
 10
7807.3953398378589554
 20
2800.9932203242638025
 10
7807.3953398378589554
 20
2800.9932203242638025
 10
7807.3953398378589554
 20
2800.9932203242638025
 10
7807.3953398378589554
 20
2800.9932203242638025
 10
7807.3953398378589554
 20
2800.9932203242638025
 10
7807.3953398378589554
 20
2800.9932203242638025
 10
7807.3953398378589554
 20
2800.9932203242638025
 10
7807.3953398378589554
 20
2800.9932203242638025
 10
7807.3953398378589554
 20
2836.7157803242657792
 10
7807.3953398378589554
 20
2836.7157803242657792
 10
7807.3953398378589554
 20
2836.7157803242657792
 10
7807.3953398378589554
 20
2836.7157803242657792
 10
7807.3953398378589554
 20
2836.7157803242657792
 10
7807.3953398378589554
 20
2836.7157803242657792
 10
7807.3953398378589554
 20
2836.7157803242657792
 10
7843.1153598378587049
 20
2836.7157803242657792
 10
7843.1153598378587049
 20
2836.7157803242657792
 10
7807.3953398378589554
 20
2859.0423803242670147
 10
7807.3953398378589554
 20
2859.0423803242670147
 10
8173.5439598378588926
 20
2859.0423803242670147
 10
8173.5439598378588926
 20
2859.0423803242670147
 10
8236.0558998378601245
 20
2800.9932203242638025
 10
8236.0558998378601245
 20
2800.9932203242638025
 10
8236.0558998378601245
 20
2800.9932203242638025
 10
8236.0558998378601245
 20
2800.9932203242638025
 10
8236.0558998378601245
 20
2800.9932203242638025
 10
8236.0558998378601245
 20
2800.9932203242638025
 10
8236.0558998378601245
 20
2800.9932203242638025
 10
8236.0558998378601245
 20
2800.9932203242638025
 10
8236.0558998378601245
 20
2800.9932203242638025
 10
8236.0558998378601245
 20
2800.9932203242638025
 10
8236.0558998378601245
 20
2800.9932203242638025
 10
8236.0558998378601245
 20
2800.9932203242638025
 10
8236.0558998378601245
 20
2800.9932203242638025
 10
8236.0558998378601245
 20
2800.9932203242638025
 10
8236.0558998378601245
 20
2800.9932203242638025
 10
8236.0558998378601245
 20
2800.9932203242638025
 10
8236.0558998378601245
 20
2800.9932203242638025
 10
8236.0558998378601245
 20
2800.9932203242638025
 10
8236.0558998378601245
 20
2800.9932203242638025
 10
8236.0558998378601245
 20
2800.9932203242638025
 10
8236.0558998378601245
 20
2800.9932203242638025
 10
8236.0558998378601245
 20
2800.9932203242638025
 10
8271.7784598378602823
 20
2800.9932203242638025
 10
8271.7784598378602823
 20
2800.9932203242638025
 10
8271.7784598378602823
 20
2800.9932203242638025
 10
8271.7784598378602823
 20
2800.9932203242638025
 10
8271.7784598378602823
 20
2800.9932203242638025
 10
8271.7784598378602823
 20
2800.9932203242638025
 10
8271.7784598378602823
 20
2800.9932203242638025
 10
8271.7784598378602823
 20
2765.2732003242640531
 10
8271.7784598378602823
 20
2765.2732003242640531
 10
8213.7318398378592974
 20
2818.8545003242620623
  0
LWPOLYLINE
  5
83
  8
LAYER-1
 62
7
370
-1
  6
ByLayer
100
AcDbEntity
100
AcDbPolyline
 90
140
 70
1
 10
8213.7318398378592974
 20
2396.3305803242660659
 10
8213.7318398378592974
 20
2363.958280324262887
 10
8213.7318398378592974
 20
2363.958280324262887
 10
8236.0558998378601245
 20
2300.8875403242668654
 10
8236.0558998378601245
 20
2300.8875403242668654
 10
8236.0558998378601245
 20
2300.8875403242668654
 10
8236.0558998378601245
 20
2300.8875403242668654
 10
8236.0558998378601245
 20
2300.8875403242668654
 10
8236.0558998378601245
 20
2300.8875403242668654
 10
8236.0558998378601245
 20
2300.8875403242668654
 10
8236.0558998378601245
 20
2300.8875403242668654
 10
8236.0558998378601245
 20
2300.8875403242668654
 10
8236.0558998378601245
 20
2300.8875403242668654
 10
8236.0558998378601245
 20
2300.8875403242668654
 10
8236.0558998378601245
 20
2300.8875403242668654
 10
8236.0558998378601245
 20
2300.8875403242668654
 10
8236.0558998378601245
 20
2300.8875403242668654
 10
8236.0558998378601245
 20
2300.8875403242668654
 10
8236.0558998378601245
 20
2300.8875403242668654
 10
8236.0558998378601245
 20
2300.8875403242668654
 10
8236.0558998378601245
 20
2300.8875403242668654
 10
8236.0558998378601245
 20
2300.8875403242668654
 10
8236.0558998378601245
 20
2300.8875403242668654
 10
8236.0558998378601245
 20
2300.8875403242668654
 10
8236.0558998378601245
 20
2300.8875403242668654
 10
8236.0558998378601245
 20
2300.8875403242668654
 10
8236.0558998378601245
 20
2300.8875403242668654
 10
8236.0558998378601245
 20
2300.8875403242668654
 10
8236.0558998378601245
 20
2300.8875403242668654
 10
8236.0558998378601245
 20
2300.8875403242668654
 10
8236.0558998378601245
 20
2300.8875403242668654
 10
8236.0558998378601245
 20
2300.8875403242668654
 10
8236.0558998378601245
 20
2300.8875403242668654
 10
8236.0558998378601245
 20
2300.8875403242668654
 10
8197.5444198378590954
 20
2347.7708603242649588
 10
8197.5444198378590954
 20
2347.7708603242649588
 10
7783.3923398378592537
 20
2347.7708603242649588
 10
7783.3923398378592537
 20
2347.7708603242649588
 10
7807.3953398378589554
 20
2336.6101003242661136
 10
7807.3953398378589554
 20
2336.6101003242661136
 10
7807.3953398378589554
 20
2336.6101003242661136
 10
7807.3953398378589554
 20
2336.6101003242661136
 10
7807.3953398378589554
 20
2336.6101003242661136
 10
7807.3953398378589554
 20
2336.6101003242661136
 10
7807.3953398378589554
 20
2336.6101003242661136
 10
7807.3953398378589554
 20
2336.6101003242661136
 10
7807.3953398378589554
 20
2336.6101003242661136
 10
7807.3953398378589554
 20
2336.6101003242661136
 10
7807.3953398378589554
 20
2336.6101003242661136
 10
7807.3953398378589554
 20
2336.6101003242661136
 10
7807.3953398378589554
 20
2336.6101003242661136
 10
7807.3953398378589554
 20
2336.6101003242661136
 10
7807.3953398378589554
 20
2336.6101003242661136
 10
7807.3953398378589554
 20
2336.6101003242661136
 10
7807.3953398378589554
 20
2336.6101003242661136
 10
7807.3953398378589554
 20
2336.6101003242661136
 10
7807.3953398378589554
 20
2336.6101003242661136
 10
7807.3953398378589554
 20
2336.6101003242661136
 10
7807.3953398378589554
 20
2336.6101003242661136
 10
7807.3953398378589554
 20
2336.6101003242661136
 10
7807.3953398378589554
 20
2336.6101003242661136
 10
7807.3953398378589554
 20
2336.6101003242661136
 10
7807.3953398378589554
 20
2336.6101003242661136
 10
7807.3953398378589554
 20
2336.6101003242661136
 10
7807.3953398378589554
 20
2336.6101003242661136
 10
7807.3953398378589554
 20
2336.6101003242661136
 10
7807.3953398378589554
 20
2336.6101003242661136
 10
7807.3953398378589554
 20
2336.6101003242661136
 10
7807.3953398378589554
 20
2336.6101003242661136
 10
7767.2074598378585506
 20
2363.958280324262887
 10
7767.2074598378585506
 20
2363.958280324262887
 10
7767.2074598378585506
 20
2396.3305803242660659
 10
7767.2074598378585506
 20
2396.3305803242660659
 10
7807.3953398378589554
 20
2372.330120324265863
 10
7807.3953398378589554
 20
2372.330120324265863
 10
7807.3953398378589554
 20
2372.330120324265863
 10
7807.3953398378589554
 20
2372.330120324265863
 10
7807.3953398378589554
 20
2372.330120324265863
 10
7807.3953398378589554
 20
2372.330120324265863
 10
7807.3953398378589554
 20
2372.330120324265863
 10
7807.3953398378589554
 20
2372.330120324265863
 10
7807.3953398378589554
 20
2372.330120324265863
 10
7807.3953398378589554
 20
2372.330120324265863
 10
7807.3953398378589554
 20
2372.330120324265863
 10
7807.3953398378589554
 20
2372.330120324265863
 10
7807.3953398378589554
 20
2372.330120324265863
 10
7807.3953398378589554
 20
2372.330120324265863
 10
7807.3953398378589554
 20
2372.330120324265863
 10
7807.3953398378589554
 20
2372.330120324265863
 10
7807.3953398378589554
 20
2372.330120324265863
 10
7807.3953398378589554
 20
2372.330120324265863
 10
7807.3953398378589554
 20
2372.330120324265863
 10
7807.3953398378589554
 20
2372.330120324265863
 10
7807.3953398378589554
 20
2372.330120324265863
 10
7807.3953398378589554
 20
2372.330120324265863
 10
7807.3953398378589554
 20
2372.330120324265863
 10
7807.3953398378589554
 20
2372.330120324265863
 10
7807.3953398378589554
 20
2372.330120324265863
 10
7807.3953398378589554
 20
2372.330120324265863
 10
7807.3953398378589554
 20
2372.330120324265863
 10
7807.3953398378589554
 20
2372.330120324265863
 10
7807.3953398378589554
 20
2372.330120324265863
 10
7807.3953398378589554
 20
2372.330120324265863
 10
7807.3953398378589554
 20
2372.330120324265863
 10
7783.3923398378592537
 20
2412.5180003242639941
 10
7783.3923398378592537
 20
2412.5180003242639941
 10
8197.5444198378590954
 20
2412.5180003242639941
 10
8197.5444198378590954
 20
2412.5180003242639941
 10
8236.0558998378601245
 20
2372.330120324265863
 10
8236.0558998378601245
 20
2372.330120324265863
 10
8236.0558998378601245
 20
2372.330120324265863
 10
8236.0558998378601245
 20
2372.330120324265863
 10
8236.0558998378601245
 20
2372.330120324265863
 10
8236.0558998378601245
 20
2372.330120324265863
 10
8236.0558998378601245
 20
2372.330120324265863
 10
8236.0558998378601245
 20
2372.330120324265863
 10
8236.0558998378601245
 20
2372.330120324265863
 10
8236.0558998378601245
 20
2372.330120324265863
 10
8236.0558998378601245
 20
2372.330120324265863
 10
8236.0558998378601245
 20
2372.330120324265863
 10
8236.0558998378601245
 20
2372.330120324265863
 10
8236.0558998378601245
 20
2372.330120324265863
 10
8236.0558998378601245
 20
2372.330120324265863
 10
8236.0558998378601245
 20
2372.330120324265863
 10
8236.0558998378601245
 20
2372.330120324265863
 10
8236.0558998378601245
 20
2372.330120324265863
 10
8236.0558998378601245
 20
2372.330120324265863
 10
8236.0558998378601245
 20
2372.330120324265863
 10
8236.0558998378601245
 20
2372.330120324265863
 10
8236.0558998378601245
 20
2372.330120324265863
 10
8236.0558998378601245
 20
2372.330120324265863
 10
8236.0558998378601245
 20
2372.330120324265863
 10
8236.0558998378601245
 20
2372.330120324265863
 10
8236.0558998378601245
 20
2372.330120324265863
 10
8236.0558998378601245
 20
2372.330120324265863
 10
8236.0558998378601245
 20
2372.330120324265863
 10
8236.0558998378601245
 20
2372.330120324265863
 10
8236.0558998378601245
 20
2372.330120324265863
 10
8236.0558998378601245
 20
2372.330120324265863
 10
8213.7318398378592974
 20
2396.3305803242660659
  0
LWPOLYLINE
  5
84
  8
LAYER-1
 62
7
370
-1
  6
ByLayer
100
AcDbEntity
100
AcDbPolyline
 90
140
 70
1
 10
4989.8266798378590465
 20
2800.9932203242638025
 10
4989.8266798378590465
 20
2434.8446003242638653
 10
4989.8266798378590465
 20
2434.8446003242638653
 10
5021.0839198378598667
 20
2372.330120324265863
 10
5021.0839198378598667
 20
2372.330120324265863
 10
5021.0839198378598667
 20
2372.330120324265863
 10
5021.0839198378598667
 20
2372.330120324265863
 10
5021.0839198378598667
 20
2372.330120324265863
 10
5021.0839198378598667
 20
2372.330120324265863
 10
5021.0839198378598667
 20
2372.330120324265863
 10
5021.0839198378598667
 20
2372.330120324265863
 10
5021.0839198378598667
 20
2372.330120324265863
 10
5021.0839198378598667
 20
2372.330120324265863
 10
5021.0839198378598667
 20
2372.330120324265863
 10
5021.0839198378598667
 20
2372.330120324265863
 10
5021.0839198378598667
 20
2372.330120324265863
 10
5021.0839198378598667
 20
2372.330120324265863
 10
5021.0839198378598667
 20
2372.330120324265863
 10
5021.0839198378598667
 20
2372.330120324265863
 10
5021.0839198378598667
 20
2372.330120324265863
 10
5021.0839198378598667
 20
2372.330120324265863
 10
5021.0839198378598667
 20
2372.330120324265863
 10
5021.0839198378598667
 20
2372.330120324265863
 10
5021.0839198378598667
 20
2372.330120324265863
 10
5021.0839198378598667
 20
2372.330120324265863
 10
5021.0839198378598667
 20
2336.6101003242661136
 10
5021.0839198378598667
 20
2336.6101003242661136
 10
5021.0839198378598667
 20
2336.6101003242661136
 10
5021.0839198378598667
 20
2336.6101003242661136
 10
5021.0839198378598667
 20
2336.6101003242661136
 10
5021.0839198378598667
 20
2336.6101003242661136
 10
5021.0839198378598667
 20
2336.6101003242661136
 10
4985.3613598378587994
 20
2336.6101003242661136
 10
4985.3613598378587994
 20
2336.6101003242661136
 10
4949.6413398378599595
 20
2394.6567203242630058
 10
4949.6413398378599595
 20
2394.6567203242630058
 10
4583.490179837861433
 20
2394.6567203242630058
 10
4583.490179837861433
 20
2394.6567203242630058
 10
4592.4208198378601082
 20
2372.330120324265863
 10
4592.4208198378601082
 20
2372.330120324265863
 10
4592.4208198378601082
 20
2372.330120324265863
 10
4592.4208198378601082
 20
2372.330120324265863
 10
4592.4208198378601082
 20
2372.330120324265863
 10
4592.4208198378601082
 20
2372.330120324265863
 10
4592.4208198378601082
 20
2372.330120324265863
 10
4592.4208198378601082
 20
2372.330120324265863
 10
4592.4208198378601082
 20
2372.330120324265863
 10
4592.4208198378601082
 20
2372.330120324265863
 10
4592.4208198378601082
 20
2372.330120324265863
 10
4592.4208198378601082
 20
2372.330120324265863
 10
4592.4208198378601082
 20
2372.330120324265863
 10
4592.4208198378601082
 20
2372.330120324265863
 10
4592.4208198378601082
 20
2372.330120324265863
 10
4592.4208198378601082
 20
2372.330120324265863
 10
4592.4208198378601082
 20
2372.330120324265863
 10
4592.4208198378601082
 20
2372.330120324265863
 10
4592.4208198378601082
 20
2372.330120324265863
 10
4592.4208198378601082
 20
2372.330120324265863
 10
4592.4208198378601082
 20
2372.330120324265863
 10
4592.4208198378601082
 20
2372.330120324265863
 10
4556.698259837859041
 20
2372.330120324265863
 10
4556.698259837859041
 20
2372.330120324265863
 10
4556.698259837859041
 20
2372.330120324265863
 10
4556.698259837859041
 20
2372.330120324265863
 10
4556.698259837859041
 20
2372.330120324265863
 10
4556.698259837859041
 20
2372.330120324265863
 10
4556.698259837859041
 20
2372.330120324265863
 10
4556.698259837859041
 20
2408.0526803242610185
 10
4556.698259837859041
 20
2408.0526803242610185
 10
4543.3048398378596175
 20
2434.8446003242638653
 10
4543.3048398378596175
 20
2434.8446003242638653
 10
4543.3048398378596175
 20
2800.9932203242638025
 10
4543.3048398378596175
 20
2800.9932203242638025
 10
4592.4208198378601082
 20
2800.9932203242638025
 10
4592.4208198378601082
 20
2800.9932203242638025
 10
4592.4208198378601082
 20
2800.9932203242638025
 10
4592.4208198378601082
 20
2800.9932203242638025
 10
4592.4208198378601082
 20
2800.9932203242638025
 10
4592.4208198378601082
 20
2800.9932203242638025
 10
4592.4208198378601082
 20
2800.9932203242638025
 10
4592.4208198378601082
 20
2800.9932203242638025
 10
4592.4208198378601082
 20
2800.9932203242638025
 10
4592.4208198378601082
 20
2800.9932203242638025
 10
4592.4208198378601082
 20
2800.9932203242638025
 10
4592.4208198378601082
 20
2800.9932203242638025
 10
4592.4208198378601082
 20
2800.9932203242638025
 10
4592.4208198378601082
 20
2800.9932203242638025
 10
4592.4208198378601082
 20
2800.9932203242638025
 10
4592.4208198378601082
 20
2800.9932203242638025
 10
4592.4208198378601082
 20
2800.9932203242638025
 10
4592.4208198378601082
 20
2800.9932203242638025
 10
4592.4208198378601082
 20
2800.9932203242638025
 10
4592.4208198378601082
 20
2800.9932203242638025
 10
4592.4208198378601082
 20
2800.9932203242638025
 10
4592.4208198378601082
 20
2800.9932203242638025
 10
4592.4208198378601082
 20
2836.7157803242657792
 10
4592.4208198378601082
 20
2836.7157803242657792
 10
4592.4208198378601082
 20
2836.7157803242657792
 10
4592.4208198378601082
 20
2836.7157803242657792
 10
4592.4208198378601082
 20
2836.7157803242657792
 10
4592.4208198378601082
 20
2836.7157803242657792
 10
4592.4208198378601082
 20
2836.7157803242657792
 10
4628.1433798378593565
 20
2836.7157803242657792
 10
4628.1433798378593565
 20
2836.7157803242657792
 10
4583.490179837861433
 20
2841.1811003242660263
 10
4583.490179837861433
 20
2841.1811003242660263
 10
4949.6413398378599595
 20
2841.1811003242660263
 10
4949.6413398378599595
 20
2841.1811003242660263
 10
4985.3613598378587994
 20
2800.9932203242638025
 10
4985.3613598378587994
 20
2800.9932203242638025
 10
4985.3613598378587994
 20
2800.9932203242638025
 10
4985.3613598378587994
 20
2800.9932203242638025
 10
4985.3613598378587994
 20
2800.9932203242638025
 10
4985.3613598378587994
 20
2800.9932203242638025
 10
4985.3613598378587994
 20
2800.9932203242638025
 10
4985.3613598378587994
 20
2800.9932203242638025
 10
4985.3613598378587994
 20
2800.9932203242638025
 10
4985.3613598378587994
 20
2800.9932203242638025
 10
4985.3613598378587994
 20
2800.9932203242638025
 10
4985.3613598378587994
 20
2800.9932203242638025
 10
4985.3613598378587994
 20
2800.9932203242638025
 10
4985.3613598378587994
 20
2800.9932203242638025
 10
4985.3613598378587994
 20
2800.9932203242638025
 10
4985.3613598378587994
 20
2800.9932203242638025
 10
4985.3613598378587994
 20
2800.9932203242638025
 10
4985.3613598378587994
 20
2800.9932203242638025
 10
4985.3613598378587994
 20
2800.9932203242638025
 10
4985.3613598378587994
 20
2800.9932203242638025
 10
4985.3613598378587994
 20
2800.9932203242638025
 10
4985.3613598378587994
 20
2800.9932203242638025
 10
5021.0839198378598667
 20
2800.9932203242638025
 10
5021.0839198378598667
 20
2800.9932203242638025
 10
5021.0839198378598667
 20
2800.9932203242638025
 10
5021.0839198378598667
 20
2800.9932203242638025
 10
5021.0839198378598667
 20
2800.9932203242638025
 10
5021.0839198378598667
 20
2800.9932203242638025
 10
5021.0839198378598667
 20
2800.9932203242638025
 10
5021.0839198378598667
 20
2765.2732003242640531
 10
5021.0839198378598667
 20
2765.2732003242640531
 10
4989.8266798378590465
 20
2800.9932203242638025
  0
LWPOLYLINE
  5
85
  8
LAYER-1
 62
7
370
-1
  6
ByLayer
100
AcDbEntity
100
AcDbPolyline
 90
140
 70
1
 10
4989.8266798378590465
 20
2378.4718403242659406
 10
4989.8266798378590465
 20
2346.0970003242659914
 10
4989.8266798378590465
 20
2346.0970003242659914
 10
5021.0839198378598667
 20
2300.8875403242668654
 10
5021.0839198378598667
 20
2300.8875403242668654
 10
5021.0839198378598667
 20
2300.8875403242668654
 10
5021.0839198378598667
 20
2300.8875403242668654
 10
5021.0839198378598667
 20
2300.8875403242668654
 10
5021.0839198378598667
 20
2300.8875403242668654
 10
5021.0839198378598667
 20
2300.8875403242668654
 10
5021.0839198378598667
 20
2300.8875403242668654
 10
5021.0839198378598667
 20
2300.8875403242668654
 10
5021.0839198378598667
 20
2300.8875403242668654
 10
5021.0839198378598667
 20
2300.8875403242668654
 10
5021.0839198378598667
 20
2300.8875403242668654
 10
5021.0839198378598667
 20
2300.8875403242668654
 10
5021.0839198378598667
 20
2300.8875403242668654
 10
5021.0839198378598667
 20
2300.8875403242668654
 10
5021.0839198378598667
 20
2300.8875403242668654
 10
5021.0839198378598667
 20
2300.8875403242668654
 10
5021.0839198378598667
 20
2300.8875403242668654
 10
5021.0839198378598667
 20
2300.8875403242668654
 10
5021.0839198378598667
 20
2300.8875403242668654
 10
5021.0839198378598667
 20
2300.8875403242668654
 10
5021.0839198378598667
 20
2300.8875403242668654
 10
5021.0839198378598667
 20
2300.8875403242668654
 10
5021.0839198378598667
 20
2300.8875403242668654
 10
5021.0839198378598667
 20
2300.8875403242668654
 10
5021.0839198378598667
 20
2300.8875403242668654
 10
5021.0839198378598667
 20
2300.8875403242668654
 10
5021.0839198378598667
 20
2300.8875403242668654
 10
5021.0839198378598667
 20
2300.8875403242668654
 10
5021.0839198378598667
 20
2300.8875403242668654
 10
5021.0839198378598667
 20
2300.8875403242668654
 10
4973.6417998378592529
 20
2329.9121203242648335
 10
4973.6417998378592529
 20
2329.9121203242648335
 10
4559.4897198378594112
 20
2329.9121203242648335
 10
4559.4897198378594112
 20
2329.9121203242648335
 10
4592.4208198378601082
 20
2300.8875403242668654
 10
4592.4208198378601082
 20
2300.8875403242668654
 10
4592.4208198378601082
 20
2300.8875403242668654
 10
4592.4208198378601082
 20
2300.8875403242668654
 10
4592.4208198378601082
 20
2300.8875403242668654
 10
4592.4208198378601082
 20
2300.8875403242668654
 10
4592.4208198378601082
 20
2300.8875403242668654
 10
4592.4208198378601082
 20
2300.8875403242668654
 10
4592.4208198378601082
 20
2300.8875403242668654
 10
4592.4208198378601082
 20
2300.8875403242668654
 10
4592.4208198378601082
 20
2300.8875403242668654
 10
4592.4208198378601082
 20
2300.8875403242668654
 10
4592.4208198378601082
 20
2300.8875403242668654
 10
4592.4208198378601082
 20
2300.8875403242668654
 10
4592.4208198378601082
 20
2300.8875403242668654
 10
4592.4208198378601082
 20
2300.8875403242668654
 10
4592.4208198378601082
 20
2300.8875403242668654
 10
4592.4208198378601082
 20
2300.8875403242668654
 10
4592.4208198378601082
 20
2300.8875403242668654
 10
4592.4208198378601082
 20
2300.8875403242668654
 10
4592.4208198378601082
 20
2300.8875403242668654
 10
4592.4208198378601082
 20
2300.8875403242668654
 10
4592.4208198378601082
 20
2300.8875403242668654
 10
4592.4208198378601082
 20
2300.8875403242668654
 10
4592.4208198378601082
 20
2300.8875403242668654
 10
4592.4208198378601082
 20
2300.8875403242668654
 10
4592.4208198378601082
 20
2300.8875403242668654
 10
4592.4208198378601082
 20
2300.8875403242668654
 10
4592.4208198378601082
 20
2300.8875403242668654
 10
4592.4208198378601082
 20
2300.8875403242668654
 10
4592.4208198378601082
 20
2300.8875403242668654
 10
4543.3048398378596175
 20
2346.0970003242659914
 10
4543.3048398378596175
 20
2346.0970003242659914
 10
4543.3048398378596175
 20
2378.4718403242659406
 10
4543.3048398378596175
 20
2378.4718403242659406
 10
4592.4208198378601082
 20
2372.330120324265863
 10
4592.4208198378601082
 20
2372.330120324265863
 10
4592.4208198378601082
 20
2372.330120324265863
 10
4592.4208198378601082
 20
2372.330120324265863
 10
4592.4208198378601082
 20
2372.330120324265863
 10
4592.4208198378601082
 20
2372.330120324265863
 10
4592.4208198378601082
 20
2372.330120324265863
 10
4592.4208198378601082
 20
2372.330120324265863
 10
4592.4208198378601082
 20
2372.330120324265863
 10
4592.4208198378601082
 20
2372.330120324265863
 10
4592.4208198378601082
 20
2372.330120324265863
 10
4592.4208198378601082
 20
2372.330120324265863
 10
4592.4208198378601082
 20
2372.330120324265863
 10
4592.4208198378601082
 20
2372.330120324265863
 10
4592.4208198378601082
 20
2372.330120324265863
 10
4592.4208198378601082
 20
2372.330120324265863
 10
4592.4208198378601082
 20
2372.330120324265863
 10
4592.4208198378601082
 20
2372.330120324265863
 10
4592.4208198378601082
 20
2372.330120324265863
 10
4592.4208198378601082
 20
2372.330120324265863
 10
4592.4208198378601082
 20
2372.330120324265863
 10
4592.4208198378601082
 20
2372.330120324265863
 10
4592.4208198378601082
 20
2372.330120324265863
 10
4592.4208198378601082
 20
2372.330120324265863
 10
4592.4208198378601082
 20
2372.330120324265863
 10
4592.4208198378601082
 20
2372.330120324265863
 10
4592.4208198378601082
 20
2372.330120324265863
 10
4592.4208198378601082
 20
2372.330120324265863
 10
4592.4208198378601082
 20
2372.330120324265863
 10
4592.4208198378601082
 20
2372.330120324265863
 10
4592.4208198378601082
 20
2372.330120324265863
 10
4559.4897198378594112
 20
2394.6567203242630058
 10
4559.4897198378594112
 20
2394.6567203242630058
 10
4973.6417998378592529
 20
2394.6567203242630058
 10
4973.6417998378592529
 20
2394.6567203242630058
 10
5021.0839198378598667
 20
2336.6101003242661136
 10
5021.0839198378598667
 20
2336.6101003242661136
 10
5021.0839198378598667
 20
2336.6101003242661136
 10
5021.0839198378598667
 20
2336.6101003242661136
 10
5021.0839198378598667
 20
2336.6101003242661136
 10
5021.0839198378598667
 20
2336.6101003242661136
 10
5021.0839198378598667
 20
2336.6101003242661136
 10
5021.0839198378598667
 20
2336.6101003242661136
 10
5021.0839198378598667
 20
2336.6101003242661136
 10
5021.0839198378598667
 20
2336.6101003242661136
 10
5021.0839198378598667
 20
2336.6101003242661136
 10
5021.0839198378598667
 20
2336.6101003242661136
 10
5021.0839198378598667
 20
2336.6101003242661136
 10
5021.0839198378598667
 20
2336.6101003242661136
 10
5021.0839198378598667
 20
2336.6101003242661136
 10
5021.0839198378598667
 20
2336.6101003242661136
 10
5021.0839198378598667
 20
2336.6101003242661136
 10
5021.0839198378598667
 20
2336.6101003242661136
 10
5021.0839198378598667
 20
2336.6101003242661136
 10
5021.0839198378598667
 20
2336.6101003242661136
 10
5021.0839198378598667
 20
2336.6101003242661136
 10
5021.0839198378598667
 20
2336.6101003242661136
 10
5021.0839198378598667
 20
2336.6101003242661136
 10
5021.0839198378598667
 20
2336.6101003242661136
 10
5021.0839198378598667
 20
2336.6101003242661136
 10
5021.0839198378598667
 20
2336.6101003242661136
 10
5021.0839198378598667
 20
2336.6101003242661136
 10
5021.0839198378598667
 20
2336.6101003242661136
 10
5021.0839198378598667
 20
2336.6101003242661136
 10
5021.0839198378598667
 20
2336.6101003242661136
 10
5021.0839198378598667
 20
2336.6101003242661136
 10
4989.8266798378590465
 20
2378.4718403242659406
  0
LWPOLYLINE
  5
86
  8
LAYER-1
 62
7
370
-1
  6
ByLayer
100
AcDbEntity
100
AcDbPolyline
 90
140
 70
1
 10
4195.014959837859351
 20
2800.9932203242638025
 10
4195.014959837859351
 20
2434.8446003242638653
 10
4195.014959837859351
 20
2434.8446003242638653
 10
4199.480279837861417
 20
2372.330120324265863
 10
4199.480279837861417
 20
2372.330120324265863
 10
4199.480279837861417
 20
2372.330120324265863
 10
4199.480279837861417
 20
2372.330120324265863
 10
4199.480279837861417
 20
2372.330120324265863
 10
4199.480279837861417
 20
2372.330120324265863
 10
4199.480279837861417
 20
2372.330120324265863
 10
4199.480279837861417
 20
2372.330120324265863
 10
4199.480279837861417
 20
2372.330120324265863
 10
4199.480279837861417
 20
2372.330120324265863
 10
4199.480279837861417
 20
2372.330120324265863
 10
4199.480279837861417
 20
2372.330120324265863
 10
4199.480279837861417
 20
2372.330120324265863
 10
4199.480279837861417
 20
2372.330120324265863
 10
4199.480279837861417
 20
2372.330120324265863
 10
4199.480279837861417
 20
2372.330120324265863
 10
4199.480279837861417
 20
2372.330120324265863
 10
4199.480279837861417
 20
2372.330120324265863
 10
4199.480279837861417
 20
2372.330120324265863
 10
4199.480279837861417
 20
2372.330120324265863
 10
4199.480279837861417
 20
2372.330120324265863
 10
4199.480279837861417
 20
2372.330120324265863
 10
4199.480279837861417
 20
2336.6101003242661136
 10
4199.480279837861417
 20
2336.6101003242661136
 10
4199.480279837861417
 20
2336.6101003242661136
 10
4199.480279837861417
 20
2336.6101003242661136
 10
4199.480279837861417
 20
2336.6101003242661136
 10
4199.480279837861417
 20
2336.6101003242661136
 10
4199.480279837861417
 20
2336.6101003242661136
 10
4163.7577198378594403
 20
2336.6101003242661136
 10
4163.7577198378594403
 20
2336.6101003242661136
 10
4154.8270798378598556
 20
2394.6567203242630058
 10
4154.8270798378598556
 20
2394.6567203242630058
 10
3788.678459837859009
 20
2394.6567203242630058
 10
3788.678459837859009
 20
2394.6567203242630058
 10
3806.5397398378599974
 20
2372.330120324265863
 10
3806.5397398378599974
 20
2372.330120324265863
 10
3806.5397398378599974
 20
2372.330120324265863
 10
3806.5397398378599974
 20
2372.330120324265863
 10
3806.5397398378599974
 20
2372.330120324265863
 10
3806.5397398378599974
 20
2372.330120324265863
 10
3806.5397398378599974
 20
2372.330120324265863
 10
3806.5397398378599974
 20
2372.330120324265863
 10
3806.5397398378599974
 20
2372.330120324265863
 10
3806.5397398378599974
 20
2372.330120324265863
 10
3806.5397398378599974
 20
2372.330120324265863
 10
3806.5397398378599974
 20
2372.330120324265863
 10
3806.5397398378599974
 20
2372.330120324265863
 10
3806.5397398378599974
 20
2372.330120324265863
 10
3806.5397398378599974
 20
2372.330120324265863
 10
3806.5397398378599974
 20
2372.330120324265863
 10
3806.5397398378599974
 20
2372.330120324265863
 10
3806.5397398378599974
 20
2372.330120324265863
 10
3806.5397398378599974
 20
2372.330120324265863
 10
3806.5397398378599974
 20
2372.330120324265863
 10
3806.5397398378599974
 20
2372.330120324265863
 10
3806.5397398378599974
 20
2372.330120324265863
 10
3770.8171798378589301
 20
2372.330120324265863
 10
3770.8171798378589301
 20
2372.330120324265863
 10
3770.8171798378589301
 20
2372.330120324265863
 10
3770.8171798378589301
 20
2372.330120324265863
 10
3770.8171798378589301
 20
2372.330120324265863
 10
3770.8171798378589301
 20
2372.330120324265863
 10
3770.8171798378589301
 20
2372.330120324265863
 10
3770.8171798378589301
 20
2408.0526803242610185
 10
3770.8171798378589301
 20
2408.0526803242610185
 10
3748.4905798378599684
 20
2434.8446003242638653
 10
3748.4905798378599684
 20
2434.8446003242638653
 10
3748.4905798378599684
 20
2800.9932203242638025
 10
3748.4905798378599684
 20
2800.9932203242638025
 10
3806.5397398378599974
 20
2800.9932203242638025
 10
3806.5397398378599974
 20
2800.9932203242638025
 10
3806.5397398378599974
 20
2800.9932203242638025
 10
3806.5397398378599974
 20
2800.9932203242638025
 10
3806.5397398378599974
 20
2800.9932203242638025
 10
3806.5397398378599974
 20
2800.9932203242638025
 10
3806.5397398378599974
 20
2800.9932203242638025
 10
3806.5397398378599974
 20
2800.9932203242638025
 10
3806.5397398378599974
 20
2800.9932203242638025
 10
3806.5397398378599974
 20
2800.9932203242638025
 10
3806.5397398378599974
 20
2800.9932203242638025
 10
3806.5397398378599974
 20
2800.9932203242638025
 10
3806.5397398378599974
 20
2800.9932203242638025
 10
3806.5397398378599974
 20
2800.9932203242638025
 10
3806.5397398378599974
 20
2800.9932203242638025
 10
3806.5397398378599974
 20
2800.9932203242638025
 10
3806.5397398378599974
 20
2800.9932203242638025
 10
3806.5397398378599974
 20
2800.9932203242638025
 10
3806.5397398378599974
 20
2800.9932203242638025
 10
3806.5397398378599974
 20
2800.9932203242638025
 10
3806.5397398378599974
 20
2800.9932203242638025
 10
3806.5397398378599974
 20
2800.9932203242638025
 10
3806.5397398378599974
 20
2836.7157803242657792
 10
3806.5397398378599974
 20
2836.7157803242657792
 10
3806.5397398378599974
 20
2836.7157803242657792
 10
3806.5397398378599974
 20
2836.7157803242657792
 10
3806.5397398378599974
 20
2836.7157803242657792
 10
3806.5397398378599974
 20
2836.7157803242657792
 10
3806.5397398378599974
 20
2836.7157803242657792
 10
3842.2597598378588373
 20
2836.7157803242657792
 10
3842.2597598378588373
 20
2836.7157803242657792
 10
3788.678459837859009
 20
2841.1811003242660263
 10
3788.678459837859009
 20
2841.1811003242660263
 10
4154.8270798378598556
 20
2841.1811003242660263
 10
4154.8270798378598556
 20
2841.1811003242660263
 10
4199.480279837861417
 20
2800.9932203242638025
 10
4199.480279837861417
 20
2800.9932203242638025
 10
4199.480279837861417
 20
2800.9932203242638025
 10
4199.480279837861417
 20
2800.9932203242638025
 10
4199.480279837861417
 20
2800.9932203242638025
 10
4199.480279837861417
 20
2800.9932203242638025
 10
4199.480279837861417
 20
2800.9932203242638025
 10
4199.480279837861417
 20
2800.9932203242638025
 10
4199.480279837861417
 20
2800.9932203242638025
 10
4199.480279837861417
 20
2800.9932203242638025
 10
4199.480279837861417
 20
2800.9932203242638025
 10
4199.480279837861417
 20
2800.9932203242638025
 10
4199.480279837861417
 20
2800.9932203242638025
 10
4199.480279837861417
 20
2800.9932203242638025
 10
4199.480279837861417
 20
2800.9932203242638025
 10
4199.480279837861417
 20
2800.9932203242638025
 10
4199.480279837861417
 20
2800.9932203242638025
 10
4199.480279837861417
 20
2800.9932203242638025
 10
4199.480279837861417
 20
2800.9932203242638025
 10
4199.480279837861417
 20
2800.9932203242638025
 10
4199.480279837861417
 20
2800.9932203242638025
 10
4199.480279837861417
 20
2800.9932203242638025
 10
4235.2028398378597558
 20
2800.9932203242638025
 10
4235.2028398378597558
 20
2800.9932203242638025
 10
4235.2028398378597558
 20
2800.9932203242638025
 10
4235.2028398378597558
 20
2800.9932203242638025
 10
4235.2028398378597558
 20
2800.9932203242638025
 10
4235.2028398378597558
 20
2800.9932203242638025
 10
4235.2028398378597558
 20
2800.9932203242638025
 10
4235.2028398378597558
 20
2765.2732003242640531
 10
4235.2028398378597558
 20
2765.2732003242640531
 10
4195.014959837859351
 20
2800.9932203242638025
  0
LWPOLYLINE
  5
87
  8
LAYER-1
 62
7
370
-1
  6
ByLayer
100
AcDbEntity
100
AcDbPolyline
 90
140
 70
1
 10
4195.014959837859351
 20
2378.4718403242659406
 10
4195.014959837859351
 20
2346.0970003242659914
 10
4195.014959837859351
 20
2346.0970003242659914
 10
4199.480279837861417
 20
2300.8875403242668654
 10
4199.480279837861417
 20
2300.8875403242668654
 10
4199.480279837861417
 20
2300.8875403242668654
 10
4199.480279837861417
 20
2300.8875403242668654
 10
4199.480279837861417
 20
2300.8875403242668654
 10
4199.480279837861417
 20
2300.8875403242668654
 10
4199.480279837861417
 20
2300.8875403242668654
 10
4199.480279837861417
 20
2300.8875403242668654
 10
4199.480279837861417
 20
2300.8875403242668654
 10
4199.480279837861417
 20
2300.8875403242668654
 10
4199.480279837861417
 20
2300.8875403242668654
 10
4199.480279837861417
 20
2300.8875403242668654
 10
4199.480279837861417
 20
2300.8875403242668654
 10
4199.480279837861417
 20
2300.8875403242668654
 10
4199.480279837861417
 20
2300.8875403242668654
 10
4199.480279837861417
 20
2300.8875403242668654
 10
4199.480279837861417
 20
2300.8875403242668654
 10
4199.480279837861417
 20
2300.8875403242668654
 10
4199.480279837861417
 20
2300.8875403242668654
 10
4199.480279837861417
 20
2300.8875403242668654
 10
4199.480279837861417
 20
2300.8875403242668654
 10
4199.480279837861417
 20
2300.8875403242668654
 10
4199.480279837861417
 20
2300.8875403242668654
 10
4199.480279837861417
 20
2300.8875403242668654
 10
4199.480279837861417
 20
2300.8875403242668654
 10
4199.480279837861417
 20
2300.8875403242668654
 10
4199.480279837861417
 20
2300.8875403242668654
 10
4199.480279837861417
 20
2300.8875403242668654
 10
4199.480279837861417
 20
2300.8875403242668654
 10
4199.480279837861417
 20
2300.8875403242668654
 10
4199.480279837861417
 20
2300.8875403242668654
 10
4178.827539837859149
 20
2329.9121203242648335
 10
4178.827539837859149
 20
2329.9121203242648335
 10
3764.6779998378601704
 20
2329.9121203242648335
 10
3764.6779998378601704
 20
2329.9121203242648335
 10
3770.8171798378589301
 20
2300.8875403242668654
 10
3770.8171798378589301
 20
2300.8875403242668654
 10
3770.8171798378589301
 20
2300.8875403242668654
 10
3770.8171798378589301
 20
2300.8875403242668654
 10
3770.8171798378589301
 20
2300.8875403242668654
 10
3770.8171798378589301
 20
2300.8875403242668654
 10
3770.8171798378589301
 20
2300.8875403242668654
 10
3770.8171798378589301
 20
2300.8875403242668654
 10
3770.8171798378589301
 20
2300.8875403242668654
 10
3770.8171798378589301
 20
2300.8875403242668654
 10
3770.8171798378589301
 20
2300.8875403242668654
 10
3770.8171798378589301
 20
2300.8875403242668654
 10
3770.8171798378589301
 20
2300.8875403242668654
 10
3770.8171798378589301
 20
2300.8875403242668654
 10
3770.8171798378589301
 20
2300.8875403242668654
 10
3770.8171798378589301
 20
2300.8875403242668654
 10
3770.8171798378589301
 20
2300.8875403242668654
 10
3770.8171798378589301
 20
2300.8875403242668654
 10
3770.8171798378589301
 20
2300.8875403242668654
 10
3770.8171798378589301
 20
2300.8875403242668654
 10
3770.8171798378589301
 20
2300.8875403242668654
 10
3770.8171798378589301
 20
2300.8875403242668654
 10
3770.8171798378589301
 20
2300.8875403242668654
 10
3770.8171798378589301
 20
2300.8875403242668654
 10
3770.8171798378589301
 20
2300.8875403242668654
 10
3770.8171798378589301
 20
2300.8875403242668654
 10
3770.8171798378589301
 20
2300.8875403242668654
 10
3770.8171798378589301
 20
2300.8875403242668654
 10
3770.8171798378589301
 20
2300.8875403242668654
 10
3770.8171798378589301
 20
2300.8875403242668654
 10
3770.8171798378589301
 20
2300.8875403242668654
 10
3748.4905798378599684
 20
2346.0970003242659914
 10
3748.4905798378599684
 20
2346.0970003242659914
 10
3748.4905798378599684
 20
2378.4718403242659406
 10
3748.4905798378599684
 20
2378.4718403242659406
 10
3806.5397398378599974
 20
2372.330120324265863
 10
3806.5397398378599974
 20
2372.330120324265863
 10
3806.5397398378599974
 20
2372.330120324265863
 10
3806.5397398378599974
 20
2372.330120324265863
 10
3806.5397398378599974
 20
2372.330120324265863
 10
3806.5397398378599974
 20
2372.330120324265863
 10
3806.5397398378599974
 20
2372.330120324265863
 10
3806.5397398378599974
 20
2372.330120324265863
 10
3806.5397398378599974
 20
2372.330120324265863
 10
3806.5397398378599974
 20
2372.330120324265863
 10
3806.5397398378599974
 20
2372.330120324265863
 10
3806.5397398378599974
 20
2372.330120324265863
 10
3806.5397398378599974
 20
2372.330120324265863
 10
3806.5397398378599974
 20
2372.330120324265863
 10
3806.5397398378599974
 20
2372.330120324265863
 10
3806.5397398378599974
 20
2372.330120324265863
 10
3806.5397398378599974
 20
2372.330120324265863
 10
3806.5397398378599974
 20
2372.330120324265863
 10
3806.5397398378599974
 20
2372.330120324265863
 10
3806.5397398378599974
 20
2372.330120324265863
 10
3806.5397398378599974
 20
2372.330120324265863
 10
3806.5397398378599974
 20
2372.330120324265863
 10
3806.5397398378599974
 20
2372.330120324265863
 10
3806.5397398378599974
 20
2372.330120324265863
 10
3806.5397398378599974
 20
2372.330120324265863
 10
3806.5397398378599974
 20
2372.330120324265863
 10
3806.5397398378599974
 20
2372.330120324265863
 10
3806.5397398378599974
 20
2372.330120324265863
 10
3806.5397398378599974
 20
2372.330120324265863
 10
3806.5397398378599974
 20
2372.330120324265863
 10
3806.5397398378599974
 20
2372.330120324265863
 10
3764.6779998378601704
 20
2394.6567203242630058
 10
3764.6779998378601704
 20
2394.6567203242630058
 10
4178.827539837859149
 20
2394.6567203242630058
 10
4178.827539837859149
 20
2394.6567203242630058
 10
4235.2028398378597558
 20
2336.6101003242661136
 10
4235.2028398378597558
 20
2336.6101003242661136
 10
4235.2028398378597558
 20
2336.6101003242661136
 10
4235.2028398378597558
 20
2336.6101003242661136
 10
4235.2028398378597558
 20
2336.6101003242661136
 10
4235.2028398378597558
 20
2336.6101003242661136
 10
4235.2028398378597558
 20
2336.6101003242661136
 10
4235.2028398378597558
 20
2336.6101003242661136
 10
4235.2028398378597558
 20
2336.6101003242661136
 10
4235.2028398378597558
 20
2336.6101003242661136
 10
4235.2028398378597558
 20
2336.6101003242661136
 10
4235.2028398378597558
 20
2336.6101003242661136
 10
4235.2028398378597558
 20
2336.6101003242661136
 10
4235.2028398378597558
 20
2336.6101003242661136
 10
4235.2028398378597558
 20
2336.6101003242661136
 10
4235.2028398378597558
 20
2336.6101003242661136
 10
4235.2028398378597558
 20
2336.6101003242661136
 10
4235.2028398378597558
 20
2336.6101003242661136
 10
4235.2028398378597558
 20
2336.6101003242661136
 10
4235.2028398378597558
 20
2336.6101003242661136
 10
4235.2028398378597558
 20
2336.6101003242661136
 10
4235.2028398378597558
 20
2336.6101003242661136
 10
4235.2028398378597558
 20
2336.6101003242661136
 10
4235.2028398378597558
 20
2336.6101003242661136
 10
4235.2028398378597558
 20
2336.6101003242661136
 10
4235.2028398378597558
 20
2336.6101003242661136
 10
4235.2028398378597558
 20
2336.6101003242661136
 10
4235.2028398378597558
 20
2336.6101003242661136
 10
4235.2028398378597558
 20
2336.6101003242661136
 10
4235.2028398378597558
 20
2336.6101003242661136
 10
4235.2028398378597558
 20
2336.6101003242661136
 10
4195.014959837859351
 20
2378.4718403242659406
  0
LWPOLYLINE
  5
88
  8
LAYER-1
 62
7
370
-1
  6
ByLayer
100
AcDbEntity
100
AcDbPolyline
 90
4
 70
1
 10
2377.3096798378628591
 20
20181.133720324269234
 10
2377.3096798378628591
 20
19230.9298803242709255
 10
1717.1687598378630355
 20
19230.9298803242709255
 10
1717.1687598378630355
 20
20181.133720324269234
  0
LWPOLYLINE
  5
89
  8
LAYER-1
 62
7
370
-1
  6
ByLayer
100
AcDbEntity
100
AcDbPolyline
 90
4
 70
1
 10
2377.3096798378628591
 20
19230.9324203242686053
 10
2377.3096798378628591
 20
18280.7285803242702968
 10
1717.1687598378630355
 20
18280.7285803242702968
 10
1717.1687598378630355
 20
19230.9324203242686053
  0
LWPOLYLINE
  5
8A
  8
LAYER-1
 62
7
370
-1
  6
ByLayer
100
AcDbEntity
100
AcDbPolyline
 90
4
 70
1
 10
9293.4299598378602241
 20
763.0572403242622386
 10
8343.2261198378600966
 20
763.0572403242622386
 10
8343.2261198378600966
 20
1423.1981603242679739
 10
9293.4299598378602241
 20
1423.1981603242679739
  0
LWPOLYLINE
  5
8B
  8
LAYER-1
 62
7
370
-1
  6
ByLayer
100
AcDbEntity
100
AcDbPolyline
 90
4
 70
1
 10
8343.2286598378595954
 20
763.0572403242622386
 10
7393.0248198378585585
 20
763.0572403242622386
 10
7393.0248198378585585
 20
1423.1981603242679739
 10
8343.2286598378595954
 20
1423.1981603242679739
  0
LWPOLYLINE
  5
8C
  8
LAYER-1
 62
7
370
-1
  6
ByLayer
100
AcDbEntity
100
AcDbPolyline
 90
4
 70
1
 10
5837.1249598378608425
 20
4506.7149803242646158
 10
2307.3148998378601391
 20
4506.7149803242646158
 10
2307.3148998378601391
 20
5328.3186203242657939
 10
5837.1249598378608425
 20
5328.3186203242657939
  0
LWPOLYLINE
  5
8D
  8
LAYER-1
 62
7
370
-1
  6
ByLayer
100
AcDbEntity
100
AcDbPolyline
 90
4
 70
1
 10
5837.1249598378608425
 20
4765.6984603242635785
 10
2307.3148998378601391
 20
4765.6984603242635785
 10
2307.3148998378601391
 20
5069.3351403242631932
 10
5837.1249598378608425
 20
5069.3351403242631932
  0
LWPOLYLINE
  5
8E
  8
LAYER-1
 62
7
370
-1
  6
ByLayer
100
AcDbEntity
100
AcDbPolyline
 90
4
 70
1
 10
5837.1249598378608425
 20
5069.3351403242631932
 10
2307.3148998378601391
 20
5069.3351403242631932
 10
2307.3148998378601391
 20
5111.7556803242659953
 10
5837.1249598378608425
 20
5111.7556803242659953
  0
LWPOLYLINE
  5
8F
  8
LAYER-1
 62
7
370
-1
  6
ByLayer
100
AcDbEntity
100
AcDbPolyline
 90
4
 70
1
 10
5837.1249598378608425
 20
4723.2804603242620942
 10
2307.3148998378601391
 20
4723.2804603242620942
 10
2307.3148998378601391
 20
4765.6984603242635785
 10
5837.1249598378608425
 20
4765.6984603242635785
  0
LWPOLYLINE
  5
90
  8
LAYER-1
 62
7
370
-1
  6
ByLayer
100
AcDbEntity
100
AcDbPolyline
 90
4
 70
1
 10
10293.4355798378601321
 20
4497.7843403242659406
 10
6763.6255198378603382
 20
4497.7843403242659406
 10
6763.6255198378603382
 20
5319.3905203242647985
 10
10293.4355798378601321
 20
5319.3905203242647985
  0
LWPOLYLINE
  5
91
  8
LAYER-1
 62
7
370
-1
  6
ByLayer
100
AcDbEntity
100
AcDbPolyline
 90
4
 70
1
 10
10293.4355798378601321
 20
4756.7703603242625832
 10
6763.6255198378603382
 20
4756.7703603242625832
 10
6763.6255198378603382
 20
5060.4045003242654275
 10
10293.4355798378601321
 20
5060.4045003242654275
  0
LWPOLYLINE
  5
92
  8
LAYER-1
 62
7
370
-1
  6
ByLayer
100
AcDbEntity
100
AcDbPolyline
 90
4
 70
1
 10
10293.4355798378601321
 20
5060.4045003242654275
 10
6763.6255198378603382
 20
5060.4045003242654275
 10
6763.6255198378603382
 20
5102.8250403242636821
 10
10293.4355798378601321
 20
5102.8250403242636821
  0
LWPOLYLINE
  5
93
  8
LAYER-1
 62
7
370
-1
  6
ByLayer
100
AcDbEntity
100
AcDbPolyline
 90
4
 70
1
 10
10293.4355798378601321
 20
4714.349820324263419
 10
6763.6255198378603382
 20
4714.349820324263419
 10
6763.6255198378603382
 20
4756.7703603242625832
 10
10293.4355798378601321
 20
4756.7703603242625832
  0
LWPOLYLINE
  5
94
  8
LAYER-1
 62
0
370
-1
  6
ByLayer
100
AcDbEntity
100
AcDbPolyline
 90
4
 70
1
 10
7391.2391998378589051
 20
763.0572403242622386
 10
6441.0353598378587776
 20
763.0572403242622386
 10
6441.0353598378587776
 20
1423.1981603242679739
 10
7391.2391998378589051
 20
1423.1981603242679739
  0
LWPOLYLINE
  5
95
  8
LAYER-1
 62
0
370
-1
  6
ByLayer
100
AcDbEntity
100
AcDbPolyline
 90
4
 70
1
 10
6441.0353598378587776
 20
763.0572403242622386
 10
5490.8315198378595596
 20
763.0572403242622386
 10
5490.8315198378595596
 20
1423.1981603242679739
 10
6441.0353598378587776
 20
1423.1981603242679739
  0
LWPOLYLINE
  5
96
  8
LAYER-1
 62
0
370
-1
  6
ByLayer
100
AcDbEntity
100
AcDbPolyline
 90
4
 70
1
 10
1913.8130198378601108
 20
2875.2933003242651466
 10
1913.8130198378601108
 20
3735.4770003242629173
 10
3744.2055998378600634
 20
3735.4770003242629173
 10
3744.2055998378600634
 20
2875.2933003242651466
  0
LWPOLYLINE
  5
97
  8
LAYER-1
 62
0
370
-1
  6
ByLayer
100
AcDbEntity
100
AcDbPolyline
 90
140
 70
1
 10
3154.6131798378601161
 20
2800.9932203242638025
 10
3154.6131798378601161
 20
2434.8446003242638653
 10
3154.6131798378601161
 20
2434.8446003242638653
 10
3163.543819837861065
 20
2372.330120324265863
 10
3163.543819837861065
 20
2372.330120324265863
 10
3163.543819837861065
 20
2372.330120324265863
 10
3163.543819837861065
 20
2372.330120324265863
 10
3163.543819837861065
 20
2372.330120324265863
 10
3163.543819837861065
 20
2372.330120324265863
 10
3163.543819837861065
 20
2372.330120324265863
 10
3163.543819837861065
 20
2372.330120324265863
 10
3163.543819837861065
 20
2372.330120324265863
 10
3163.543819837861065
 20
2372.330120324265863
 10
3163.543819837861065
 20
2372.330120324265863
 10
3163.543819837861065
 20
2372.330120324265863
 10
3163.543819837861065
 20
2372.330120324265863
 10
3163.543819837861065
 20
2372.330120324265863
 10
3163.543819837861065
 20
2372.330120324265863
 10
3163.543819837861065
 20
2372.330120324265863
 10
3163.543819837861065
 20
2372.330120324265863
 10
3163.543819837861065
 20
2372.330120324265863
 10
3163.543819837861065
 20
2372.330120324265863
 10
3163.543819837861065
 20
2372.330120324265863
 10
3163.543819837861065
 20
2372.330120324265863
 10
3163.543819837861065
 20
2372.330120324265863
 10
3163.543819837861065
 20
2336.6101003242661136
 10
3163.543819837861065
 20
2336.6101003242661136
 10
3163.543819837861065
 20
2336.6101003242661136
 10
3163.543819837861065
 20
2336.6101003242661136
 10
3163.543819837861065
 20
2336.6101003242661136
 10
3163.543819837861065
 20
2336.6101003242661136
 10
3163.543819837861065
 20
2336.6101003242661136
 10
3127.8212598378599978
 20
2336.6101003242661136
 10
3127.8212598378599978
 20
2336.6101003242661136
 10
3114.4278398378601196
 20
2394.6567203242630058
 10
3114.4278398378601196
 20
2394.6567203242630058
 10
2748.2766798378597741
 20
2394.6567203242630058
 10
2748.2766798378597741
 20
2394.6567203242630058
 10
2770.6032798378601001
 20
2372.330120324265863
 10
2770.6032798378601001
 20
2372.330120324265863
 10
2770.6032798378601001
 20
2372.330120324265863
 10
2770.6032798378601001
 20
2372.330120324265863
 10
2770.6032798378601001
 20
2372.330120324265863
 10
2770.6032798378601001
 20
2372.330120324265863
 10
2770.6032798378601001
 20
2372.330120324265863
 10
2770.6032798378601001
 20
2372.330120324265863
 10
2770.6032798378601001
 20
2372.330120324265863
 10
2770.6032798378601001
 20
2372.330120324265863
 10
2770.6032798378601001
 20
2372.330120324265863
 10
2770.6032798378601001
 20
2372.330120324265863
 10
2770.6032798378601001
 20
2372.330120324265863
 10
2770.6032798378601001
 20
2372.330120324265863
 10
2770.6032798378601001
 20
2372.330120324265863
 10
2770.6032798378601001
 20
2372.330120324265863
 10
2770.6032798378601001
 20
2372.330120324265863
 10
2770.6032798378601001
 20
2372.330120324265863
 10
2770.6032798378601001
 20
2372.330120324265863
 10
2770.6032798378601001
 20
2372.330120324265863
 10
2770.6032798378601001
 20
2372.330120324265863
 10
2770.6032798378601001
 20
2372.330120324265863
 10
2734.8807198378599423
 20
2372.330120324265863
 10
2734.8807198378599423
 20
2372.330120324265863
 10
2734.8807198378599423
 20
2372.330120324265863
 10
2734.8807198378599423
 20
2372.330120324265863
 10
2734.8807198378599423
 20
2372.330120324265863
 10
2734.8807198378599423
 20
2372.330120324265863
 10
2734.8807198378599423
 20
2372.330120324265863
 10
2734.8807198378599423
 20
2408.0526803242610185
 10
2734.8807198378599423
 20
2408.0526803242610185
 10
2708.088799837859824
 20
2434.8446003242638653
 10
2708.088799837859824
 20
2434.8446003242638653
 10
2708.088799837859824
 20
2800.9932203242638025
 10
2708.088799837859824
 20
2800.9932203242638025
 10
2770.6032798378601001
 20
2800.9932203242638025
 10
2770.6032798378601001
 20
2800.9932203242638025
 10
2770.6032798378601001
 20
2800.9932203242638025
 10
2770.6032798378601001
 20
2800.9932203242638025
 10
2770.6032798378601001
 20
2800.9932203242638025
 10
2770.6032798378601001
 20
2800.9932203242638025
 10
2770.6032798378601001
 20
2800.9932203242638025
 10
2770.6032798378601001
 20
2800.9932203242638025
 10
2770.6032798378601001
 20
2800.9932203242638025
 10
2770.6032798378601001
 20
2800.9932203242638025
 10
2770.6032798378601001
 20
2800.9932203242638025
 10
2770.6032798378601001
 20
2800.9932203242638025
 10
2770.6032798378601001
 20
2800.9932203242638025
 10
2770.6032798378601001
 20
2800.9932203242638025
 10
2770.6032798378601001
 20
2800.9932203242638025
 10
2770.6032798378601001
 20
2800.9932203242638025
 10
2770.6032798378601001
 20
2800.9932203242638025
 10
2770.6032798378601001
 20
2800.9932203242638025
 10
2770.6032798378601001
 20
2800.9932203242638025
 10
2770.6032798378601001
 20
2800.9932203242638025
 10
2770.6032798378601001
 20
2800.9932203242638025
 10
2770.6032798378601001
 20
2800.9932203242638025
 10
2770.6032798378601001
 20
2836.7157803242657792
 10
2770.6032798378601001
 20
2836.7157803242657792
 10
2770.6032798378601001
 20
2836.7157803242657792
 10
2770.6032798378601001
 20
2836.7157803242657792
 10
2770.6032798378601001
 20
2836.7157803242657792
 10
2770.6032798378601001
 20
2836.7157803242657792
 10
2770.6032798378601001
 20
2836.7157803242657792
 10
2806.3258398378598031
 20
2836.7157803242657792
 10
2806.3258398378598031
 20
2836.7157803242657792
 10
2748.2766798378597741
 20
2841.1811003242660263
 10
2748.2766798378597741
 20
2841.1811003242660263
 10
3114.4278398378601196
 20
2841.1811003242660263
 10
3114.4278398378601196
 20
2841.1811003242660263
 10
3163.543819837861065
 20
2800.9932203242638025
 10
3163.543819837861065
 20
2800.9932203242638025
 10
3163.543819837861065
 20
2800.9932203242638025
 10
3163.543819837861065
 20
2800.9932203242638025
 10
3163.543819837861065
 20
2800.9932203242638025
 10
3163.543819837861065
 20
2800.9932203242638025
 10
3163.543819837861065
 20
2800.9932203242638025
 10
3163.543819837861065
 20
2800.9932203242638025
 10
3163.543819837861065
 20
2800.9932203242638025
 10
3163.543819837861065
 20
2800.9932203242638025
 10
3163.543819837861065
 20
2800.9932203242638025
 10
3163.543819837861065
 20
2800.9932203242638025
 10
3163.543819837861065
 20
2800.9932203242638025
 10
3163.543819837861065
 20
2800.9932203242638025
 10
3163.543819837861065
 20
2800.9932203242638025
 10
3163.543819837861065
 20
2800.9932203242638025
 10
3163.543819837861065
 20
2800.9932203242638025
 10
3163.543819837861065
 20
2800.9932203242638025
 10
3163.543819837861065
 20
2800.9932203242638025
 10
3163.543819837861065
 20
2800.9932203242638025
 10
3163.543819837861065
 20
2800.9932203242638025
 10
3163.543819837861065
 20
2800.9932203242638025
 10
3199.266379837858949
 20
2800.9932203242638025
 10
3199.266379837858949
 20
2800.9932203242638025
 10
3199.266379837858949
 20
2800.9932203242638025
 10
3199.266379837858949
 20
2800.9932203242638025
 10
3199.266379837858949
 20
2800.9932203242638025
 10
3199.266379837858949
 20
2800.9932203242638025
 10
3199.266379837858949
 20
2800.9932203242638025
 10
3199.266379837858949
 20
2765.2732003242640531
 10
3199.266379837858949
 20
2765.2732003242640531
 10
3154.6131798378601161
 20
2800.9932203242638025
  0
LWPOLYLINE
  5
98
  8
LAYER-1
 62
0
370
-1
  6
ByLayer
100
AcDbEntity
100
AcDbPolyline
 90
140
 70
1
 10
3154.6131798378601161
 20
2378.4718403242659406
 10
3154.6131798378601161
 20
2346.0970003242659914
 10
3154.6131798378601161
 20
2346.0970003242659914
 10
3163.543819837861065
 20
2300.8875403242668654
 10
3163.543819837861065
 20
2300.8875403242668654
 10
3163.543819837861065
 20
2300.8875403242668654
 10
3163.543819837861065
 20
2300.8875403242668654
 10
3163.543819837861065
 20
2300.8875403242668654
 10
3163.543819837861065
 20
2300.8875403242668654
 10
3163.543819837861065
 20
2300.8875403242668654
 10
3163.543819837861065
 20
2300.8875403242668654
 10
3163.543819837861065
 20
2300.8875403242668654
 10
3163.543819837861065
 20
2300.8875403242668654
 10
3163.543819837861065
 20
2300.8875403242668654
 10
3163.543819837861065
 20
2300.8875403242668654
 10
3163.543819837861065
 20
2300.8875403242668654
 10
3163.543819837861065
 20
2300.8875403242668654
 10
3163.543819837861065
 20
2300.8875403242668654
 10
3163.543819837861065
 20
2300.8875403242668654
 10
3163.543819837861065
 20
2300.8875403242668654
 10
3163.543819837861065
 20
2300.8875403242668654
 10
3163.543819837861065
 20
2300.8875403242668654
 10
3163.543819837861065
 20
2300.8875403242668654
 10
3163.543819837861065
 20
2300.8875403242668654
 10
3163.543819837861065
 20
2300.8875403242668654
 10
3163.543819837861065
 20
2300.8875403242668654
 10
3163.543819837861065
 20
2300.8875403242668654
 10
3163.543819837861065
 20
2300.8875403242668654
 10
3163.543819837861065
 20
2300.8875403242668654
 10
3163.543819837861065
 20
2300.8875403242668654
 10
3163.543819837861065
 20
2300.8875403242668654
 10
3163.543819837861065
 20
2300.8875403242668654
 10
3163.543819837861065
 20
2300.8875403242668654
 10
3163.543819837861065
 20
2300.8875403242668654
 10
3138.4282998378589582
 20
2329.9121203242648335
 10
3138.4282998378589582
 20
2329.9121203242648335
 10
2724.276219837860026
 20
2329.9121203242648335
 10
2724.276219837860026
 20
2329.9121203242648335
 10
2734.8807198378599423
 20
2300.8875403242668654
 10
2734.8807198378599423
 20
2300.8875403242668654
 10
2734.8807198378599423
 20
2300.8875403242668654
 10
2734.8807198378599423
 20
2300.8875403242668654
 10
2734.8807198378599423
 20
2300.8875403242668654
 10
2734.8807198378599423
 20
2300.8875403242668654
 10
2734.8807198378599423
 20
2300.8875403242668654
 10
2734.8807198378599423
 20
2300.8875403242668654
 10
2734.8807198378599423
 20
2300.8875403242668654
 10
2734.8807198378599423
 20
2300.8875403242668654
 10
2734.8807198378599423
 20
2300.8875403242668654
 10
2734.8807198378599423
 20
2300.8875403242668654
 10
2734.8807198378599423
 20
2300.8875403242668654
 10
2734.8807198378599423
 20
2300.8875403242668654
 10
2734.8807198378599423
 20
2300.8875403242668654
 10
2734.8807198378599423
 20
2300.8875403242668654
 10
2734.8807198378599423
 20
2300.8875403242668654
 10
2734.8807198378599423
 20
2300.8875403242668654
 10
2734.8807198378599423
 20
2300.8875403242668654
 10
2734.8807198378599423
 20
2300.8875403242668654
 10
2734.8807198378599423
 20
2300.8875403242668654
 10
2734.8807198378599423
 20
2300.8875403242668654
 10
2734.8807198378599423
 20
2300.8875403242668654
 10
2734.8807198378599423
 20
2300.8875403242668654
 10
2734.8807198378599423
 20
2300.8875403242668654
 10
2734.8807198378599423
 20
2300.8875403242668654
 10
2734.8807198378599423
 20
2300.8875403242668654
 10
2734.8807198378599423
 20
2300.8875403242668654
 10
2734.8807198378599423
 20
2300.8875403242668654
 10
2734.8807198378599423
 20
2300.8875403242668654
 10
2734.8807198378599423
 20
2300.8875403242668654
 10
2708.088799837859824
 20
2346.0970003242659914
 10
2708.088799837859824
 20
2346.0970003242659914
 10
2708.088799837859824
 20
2378.4718403242659406
 10
2708.088799837859824
 20
2378.4718403242659406
 10
2770.6032798378601001
 20
2372.330120324265863
 10
2770.6032798378601001
 20
2372.330120324265863
 10
2770.6032798378601001
 20
2372.330120324265863
 10
2770.6032798378601001
 20
2372.330120324265863
 10
2770.6032798378601001
 20
2372.330120324265863
 10
2770.6032798378601001
 20
2372.330120324265863
 10
2770.6032798378601001
 20
2372.330120324265863
 10
2770.6032798378601001
 20
2372.330120324265863
 10
2770.6032798378601001
 20
2372.330120324265863
 10
2770.6032798378601001
 20
2372.330120324265863
 10
2770.6032798378601001
 20
2372.330120324265863
 10
2770.6032798378601001
 20
2372.330120324265863
 10
2770.6032798378601001
 20
2372.330120324265863
 10
2770.6032798378601001
 20
2372.330120324265863
 10
2770.6032798378601001
 20
2372.330120324265863
 10
2770.6032798378601001
 20
2372.330120324265863
 10
2770.6032798378601001
 20
2372.330120324265863
 10
2770.6032798378601001
 20
2372.330120324265863
 10
2770.6032798378601001
 20
2372.330120324265863
 10
2770.6032798378601001
 20
2372.330120324265863
 10
2770.6032798378601001
 20
2372.330120324265863
 10
2770.6032798378601001
 20
2372.330120324265863
 10
2770.6032798378601001
 20
2372.330120324265863
 10
2770.6032798378601001
 20
2372.330120324265863
 10
2770.6032798378601001
 20
2372.330120324265863
 10
2770.6032798378601001
 20
2372.330120324265863
 10
2770.6032798378601001
 20
2372.330120324265863
 10
2770.6032798378601001
 20
2372.330120324265863
 10
2770.6032798378601001
 20
2372.330120324265863
 10
2770.6032798378601001
 20
2372.330120324265863
 10
2770.6032798378601001
 20
2372.330120324265863
 10
2724.276219837860026
 20
2394.6567203242630058
 10
2724.276219837860026
 20
2394.6567203242630058
 10
3138.4282998378589582
 20
2394.6567203242630058
 10
3138.4282998378589582
 20
2394.6567203242630058
 10
3199.266379837858949
 20
2336.6101003242661136
 10
3199.266379837858949
 20
2336.6101003242661136
 10
3199.266379837858949
 20
2336.6101003242661136
 10
3199.266379837858949
 20
2336.6101003242661136
 10
3199.266379837858949
 20
2336.6101003242661136
 10
3199.266379837858949
 20
2336.6101003242661136
 10
3199.266379837858949
 20
2336.6101003242661136
 10
3199.266379837858949
 20
2336.6101003242661136
 10
3199.266379837858949
 20
2336.6101003242661136
 10
3199.266379837858949
 20
2336.6101003242661136
 10
3199.266379837858949
 20
2336.6101003242661136
 10
3199.266379837858949
 20
2336.6101003242661136
 10
3199.266379837858949
 20
2336.6101003242661136
 10
3199.266379837858949
 20
2336.6101003242661136
 10
3199.266379837858949
 20
2336.6101003242661136
 10
3199.266379837858949
 20
2336.6101003242661136
 10
3199.266379837858949
 20
2336.6101003242661136
 10
3199.266379837858949
 20
2336.6101003242661136
 10
3199.266379837858949
 20
2336.6101003242661136
 10
3199.266379837858949
 20
2336.6101003242661136
 10
3199.266379837858949
 20
2336.6101003242661136
 10
3199.266379837858949
 20
2336.6101003242661136
 10
3199.266379837858949
 20
2336.6101003242661136
 10
3199.266379837858949
 20
2336.6101003242661136
 10
3199.266379837858949
 20
2336.6101003242661136
 10
3199.266379837858949
 20
2336.6101003242661136
 10
3199.266379837858949
 20
2336.6101003242661136
 10
3199.266379837858949
 20
2336.6101003242661136
 10
3199.266379837858949
 20
2336.6101003242661136
 10
3199.266379837858949
 20
2336.6101003242661136
 10
3199.266379837858949
 20
2336.6101003242661136
 10
3154.6131798378601161
 20
2378.4718403242659406
  0
LWPOLYLINE
  5
99
  8
LAYER-1
 62
0
370
-1
  6
ByLayer
100
AcDbEntity
100
AcDbPolyline
 90
4
 70
1
 10
9932.087559837860681
 20
3907.6864603242652265
 10
10792.2712598378602706
 20
3907.6864603242652265
 10
10792.2712598378602706
 20
2260.6971203242651427
 10
9932.087559837858862
 20
2260.6971203242651427
  0
LWPOLYLINE
  5
9A
  8
LAYER-1
 62
0
370
-1
  6
ByLayer
100
AcDbEntity
100
AcDbPolyline
 90
140
 70
1
 10
9857.7900198378592904
 20
2979.4688603242648242
 10
9491.6388598378598545
 20
2979.4688603242648242
 10
9491.6388598378598545
 20
2979.4688603242648242
 10
9522.0451998378593998
 20
2943.8809203242672083
 10
9522.0451998378593998
 20
2943.8809203242672083
 10
9522.0451998378593998
 20
2943.8809203242672083
 10
9522.0451998378593998
 20
2943.8809203242672083
 10
9522.0451998378593998
 20
2943.8809203242672083
 10
9522.0451998378593998
 20
2943.8809203242672083
 10
9522.0451998378593998
 20
2943.8809203242672083
 10
9522.0451998378593998
 20
2943.8809203242672083
 10
9522.0451998378593998
 20
2943.8809203242672083
 10
9522.0451998378593998
 20
2943.8809203242672083
 10
9522.0451998378593998
 20
2943.8809203242672083
 10
9522.0451998378593998
 20
2943.8809203242672083
 10
9522.0451998378593998
 20
2943.8809203242672083
 10
9522.0451998378593998
 20
2943.8809203242672083
 10
9522.0451998378593998
 20
2943.8809203242672083
 10
9522.0451998378593998
 20
2943.8809203242672083
 10
9522.0451998378593998
 20
2943.8809203242672083
 10
9522.0451998378593998
 20
2943.8809203242672083
 10
9522.0451998378593998
 20
2943.8809203242672083
 10
9522.0451998378593998
 20
2943.8809203242672083
 10
9522.0451998378593998
 20
2943.8809203242672083
 10
9522.0451998378593998
 20
2943.8809203242672083
 10
9486.3251798378587409
 20
2943.8809203242672083
 10
9486.3251798378587409
 20
2943.8809203242672083
 10
9486.3251798378587409
 20
2943.8809203242672083
 10
9486.3251798378587409
 20
2943.8809203242672083
 10
9486.3251798378587409
 20
2943.8809203242672083
 10
9486.3251798378587409
 20
2943.8809203242672083
 10
9486.3251798378587409
 20
2943.8809203242672083
 10
9486.3251798378587409
 20
2979.6034803242660018
 10
9486.3251798378587409
 20
2979.6034803242660018
 10
9451.4509798378603591
 20
3019.6567403242661385
 10
9451.4509798378603591
 20
3019.6567403242661385
 10
9451.4509798378603591
 20
3385.8053603242660756
 10
9451.4509798378603591
 20
3385.8053603242660756
 10
9522.0451998378593998
 20
3372.5440203242651478
 10
9522.0451998378593998
 20
3372.5440203242651478
 10
9522.0451998378593998
 20
3372.5440203242651478
 10
9522.0451998378593998
 20
3372.5440203242651478
 10
9522.0451998378593998
 20
3372.5440203242651478
 10
9522.0451998378593998
 20
3372.5440203242651478
 10
9522.0451998378593998
 20
3372.5440203242651478
 10
9522.0451998378593998
 20
3372.5440203242651478
 10
9522.0451998378593998
 20
3372.5440203242651478
 10
9522.0451998378593998
 20
3372.5440203242651478
 10
9522.0451998378593998
 20
3372.5440203242651478
 10
9522.0451998378593998
 20
3372.5440203242651478
 10
9522.0451998378593998
 20
3372.5440203242651478
 10
9522.0451998378593998
 20
3372.5440203242651478
 10
9522.0451998378593998
 20
3372.5440203242651478
 10
9522.0451998378593998
 20
3372.5440203242651478
 10
9522.0451998378593998
 20
3372.5440203242651478
 10
9522.0451998378593998
 20
3372.5440203242651478
 10
9522.0451998378593998
 20
3372.5440203242651478
 10
9522.0451998378593998
 20
3372.5440203242651478
 10
9522.0451998378593998
 20
3372.5440203242651478
 10
9522.0451998378593998
 20
3372.5440203242651478
 10
9522.0451998378593998
 20
3408.2665803242671245
 10
9522.0451998378593998
 20
3408.2665803242671245
 10
9522.0451998378593998
 20
3408.2665803242671245
 10
9522.0451998378593998
 20
3408.2665803242671245
 10
9522.0451998378593998
 20
3408.2665803242671245
 10
9522.0451998378593998
 20
3408.2665803242671245
 10
9522.0451998378593998
 20
3408.2665803242671245
 10
9557.7677598378595576
 20
3408.2665803242671245
 10
9557.7677598378595576
 20
3408.2665803242671245
 10
9491.6388598378598545
 20
3425.9932403242642067
 10
9491.6388598378598545
 20
3425.9932403242642067
 10
9857.7900198378592904
 20
3425.9932403242642067
 10
9857.7900198378592904
 20
3425.9932403242642067
 10
9914.9882798378603184
 20
3372.5440203242651478
 10
9914.9882798378603184
 20
3372.5440203242651478
 10
9914.9882798378603184
 20
3372.5440203242651478
 10
9914.9882798378603184
 20
3372.5440203242651478
 10
9914.9882798378603184
 20
3372.5440203242651478
 10
9914.9882798378603184
 20
3372.5440203242651478
 10
9914.9882798378603184
 20
3372.5440203242651478
 10
9914.9882798378603184
 20
3372.5440203242651478
 10
9914.9882798378603184
 20
3372.5440203242651478
 10
9914.9882798378603184
 20
3372.5440203242651478
 10
9914.9882798378603184
 20
3372.5440203242651478
 10
9914.9882798378603184
 20
3372.5440203242651478
 10
9914.9882798378603184
 20
3372.5440203242651478
 10
9914.9882798378603184
 20
3372.5440203242651478
 10
9914.9882798378603184
 20
3372.5440203242651478
 10
9914.9882798378603184
 20
3372.5440203242651478
 10
9914.9882798378603184
 20
3372.5440203242651478
 10
9914.9882798378603184
 20
3372.5440203242651478
 10
9914.9882798378603184
 20
3372.5440203242651478
 10
9914.9882798378603184
 20
3372.5440203242651478
 10
9914.9882798378603184
 20
3372.5440203242651478
 10
9914.9882798378603184
 20
3372.5440203242651478
 10
9950.7082998378591583
 20
3372.5440203242651478
 10
9950.7082998378591583
 20
3372.5440203242651478
 10
9950.7082998378591583
 20
3372.5440203242651478
 10
9950.7082998378591583
 20
3372.5440203242651478
 10
9950.7082998378591583
 20
3372.5440203242651478
 10
9950.7082998378591583
 20
3372.5440203242651478
 10
9950.7082998378591583
 20
3372.5440203242651478
 10
9950.7082998378591583
 20
3336.8240003242681269
 10
9950.7082998378591583
 20
3336.8240003242681269
 10
9897.9753598378592869
 20
3385.8053603242660756
 10
9897.9753598378592869
 20
3385.8053603242660756
 10
9897.9753598378592869
 20
3019.6567403242661385
 10
9897.9753598378592869
 20
3019.6567403242661385
 10
9914.9882798378603184
 20
2979.6034803242660018
 10
9914.9882798378603184
 20
2979.6034803242660018
 10
9914.9882798378603184
 20
2979.6034803242660018
 10
9914.9882798378603184
 20
2979.6034803242660018
 10
9914.9882798378603184
 20
2979.6034803242660018
 10
9914.9882798378603184
 20
2979.6034803242660018
 10
9914.9882798378603184
 20
2979.6034803242660018
 10
9914.9882798378603184
 20
2979.6034803242660018
 10
9914.9882798378603184
 20
2979.6034803242660018
 10
9914.9882798378603184
 20
2979.6034803242660018
 10
9914.9882798378603184
 20
2979.6034803242660018
 10
9914.9882798378603184
 20
2979.6034803242660018
 10
9914.9882798378603184
 20
2979.6034803242660018
 10
9914.9882798378603184
 20
2979.6034803242660018
 10
9914.9882798378603184
 20
2979.6034803242660018
 10
9914.9882798378603184
 20
2979.6034803242660018
 10
9914.9882798378603184
 20
2979.6034803242660018
 10
9914.9882798378603184
 20
2979.6034803242660018
 10
9914.9882798378603184
 20
2979.6034803242660018
 10
9914.9882798378603184
 20
2979.6034803242660018
 10
9914.9882798378603184
 20
2979.6034803242660018
 10
9914.9882798378603184
 20
2979.6034803242660018
 10
9914.9882798378603184
 20
2943.8809203242672083
 10
9914.9882798378603184
 20
2943.8809203242672083
 10
9914.9882798378603184
 20
2943.8809203242672083
 10
9914.9882798378603184
 20
2943.8809203242672083
 10
9914.9882798378603184
 20
2943.8809203242672083
 10
9914.9882798378603184
 20
2943.8809203242672083
 10
9914.9882798378603184
 20
2943.8809203242672083
 10
9879.2657198378583416
 20
2943.8809203242672083
 10
9879.2657198378583416
 20
2943.8809203242672083
 10
9857.7900198378592904
 20
2979.4688603242648242
  0
LWPOLYLINE
  5
9B
  8
LAYER-1
 62
0
370
-1
  6
ByLayer
100
AcDbEntity
100
AcDbPolyline
 90
140
 70
1
 10
9435.266099837859656
 20
2979.4688603242648242
 10
9402.8937998378605698
 20
2979.4688603242648242
 10
9402.8937998378605698
 20
2979.4688603242648242
 10
9414.8800598378584255
 20
2943.8809203242672083
 10
9414.8800598378584255
 20
2943.8809203242672083
 10
9414.8800598378584255
 20
2943.8809203242672083
 10
9414.8800598378584255
 20
2943.8809203242672083
 10
9414.8800598378584255
 20
2943.8809203242672083
 10
9414.8800598378584255
 20
2943.8809203242672083
 10
9414.8800598378584255
 20
2943.8809203242672083
 10
9414.8800598378584255
 20
2943.8809203242672083
 10
9414.8800598378584255
 20
2943.8809203242672083
 10
9414.8800598378584255
 20
2943.8809203242672083
 10
9414.8800598378584255
 20
2943.8809203242672083
 10
9414.8800598378584255
 20
2943.8809203242672083
 10
9414.8800598378584255
 20
2943.8809203242672083
 10
9414.8800598378584255
 20
2943.8809203242672083
 10
9414.8800598378584255
 20
2943.8809203242672083
 10
9414.8800598378584255
 20
2943.8809203242672083
 10
9414.8800598378584255
 20
2943.8809203242672083
 10
9414.8800598378584255
 20
2943.8809203242672083
 10
9414.8800598378584255
 20
2943.8809203242672083
 10
9414.8800598378584255
 20
2943.8809203242672083
 10
9414.8800598378584255
 20
2943.8809203242672083
 10
9414.8800598378584255
 20
2943.8809203242672083
 10
9414.8800598378584255
 20
2943.8809203242672083
 10
9414.8800598378584255
 20
2943.8809203242672083
 10
9414.8800598378584255
 20
2943.8809203242672083
 10
9414.8800598378584255
 20
2943.8809203242672083
 10
9414.8800598378584255
 20
2943.8809203242672083
 10
9414.8800598378584255
 20
2943.8809203242672083
 10
9414.8800598378584255
 20
2943.8809203242672083
 10
9414.8800598378584255
 20
2943.8809203242672083
 10
9414.8800598378584255
 20
2943.8809203242672083
 10
9386.7063798378585489
 20
2995.6562803242668451
 10
9386.7063798378585489
 20
2995.6562803242668451
 10
9386.7063798378603678
 20
3409.8058203242649142
 10
9386.7063798378603678
 20
3409.8058203242649142
 10
9450.6026198378604022
 20
3408.2665803242671245
 10
9450.6026198378604022
 20
3408.2665803242671245
 10
9450.6026198378604022
 20
3408.2665803242671245
 10
9450.6026198378604022
 20
3408.2665803242671245
 10
9450.6026198378604022
 20
3408.2665803242671245
 10
9450.6026198378604022
 20
3408.2665803242671245
 10
9450.6026198378604022
 20
3408.2665803242671245
 10
9450.6026198378604022
 20
3408.2665803242671245
 10
9450.6026198378604022
 20
3408.2665803242671245
 10
9450.6026198378604022
 20
3408.2665803242671245
 10
9450.6026198378604022
 20
3408.2665803242671245
 10
9450.6026198378604022
 20
3408.2665803242671245
 10
9450.6026198378604022
 20
3408.2665803242671245
 10
9450.6026198378604022
 20
3408.2665803242671245
 10
9450.6026198378604022
 20
3408.2665803242671245
 10
9450.6026198378604022
 20
3408.2665803242671245
 10
9450.6026198378604022
 20
3408.2665803242671245
 10
9450.6026198378604022
 20
3408.2665803242671245
 10
9450.6026198378604022
 20
3408.2665803242671245
 10
9450.6026198378604022
 20
3408.2665803242671245
 10
9450.6026198378604022
 20
3408.2665803242671245
 10
9450.6026198378604022
 20
3408.2665803242671245
 10
9450.6026198378604022
 20
3408.2665803242671245
 10
9450.6026198378604022
 20
3408.2665803242671245
 10
9450.6026198378604022
 20
3408.2665803242671245
 10
9450.6026198378604022
 20
3408.2665803242671245
 10
9450.6026198378604022
 20
3408.2665803242671245
 10
9450.6026198378604022
 20
3408.2665803242671245
 10
9450.6026198378604022
 20
3408.2665803242671245
 10
9450.6026198378604022
 20
3408.2665803242671245
 10
9450.6026198378604022
 20
3408.2665803242671245
 10
9402.8937998378605698
 20
3425.9932403242642067
 10
9402.8937998378605698
 20
3425.9932403242642067
 10
9435.266099837859656
 20
3425.9932403242642067
 10
9435.266099837859656
 20
3425.9932403242642067
 10
9486.3251798378605599
 20
3372.5440203242651478
 10
9486.3251798378605599
 20
3372.5440203242651478
 10
9486.3251798378605599
 20
3372.5440203242651478
 10
9486.3251798378605599
 20
3372.5440203242651478
 10
9486.3251798378605599
 20
3372.5440203242651478
 10
9486.3251798378605599
 20
3372.5440203242651478
 10
9486.3251798378605599
 20
3372.5440203242651478
 10
9486.3251798378605599
 20
3372.5440203242651478
 10
9486.3251798378605599
 20
3372.5440203242651478
 10
9486.3251798378605599
 20
3372.5440203242651478
 10
9486.3251798378605599
 20
3372.5440203242651478
 10
9486.3251798378605599
 20
3372.5440203242651478
 10
9486.3251798378605599
 20
3372.5440203242651478
 10
9486.3251798378605599
 20
3372.5440203242651478
 10
9486.3251798378605599
 20
3372.5440203242651478
 10
9486.3251798378605599
 20
3372.5440203242651478
 10
9486.3251798378605599
 20
3372.5440203242651478
 10
9486.3251798378605599
 20
3372.5440203242651478
 10
9486.3251798378605599
 20
3372.5440203242651478
 10
9486.3251798378605599
 20
3372.5440203242651478
 10
9486.3251798378605599
 20
3372.5440203242651478
 10
9486.3251798378605599
 20
3372.5440203242651478
 10
9486.3251798378605599
 20
3372.5440203242651478
 10
9486.3251798378605599
 20
3372.5440203242651478
 10
9486.3251798378605599
 20
3372.5440203242651478
 10
9486.3251798378605599
 20
3372.5440203242651478
 10
9486.3251798378605599
 20
3372.5440203242651478
 10
9486.3251798378605599
 20
3372.5440203242651478
 10
9486.3251798378605599
 20
3372.5440203242651478
 10
9486.3251798378605599
 20
3372.5440203242651478
 10
9486.3251798378605599
 20
3372.5440203242651478
 10
9451.4509798378603591
 20
3409.8058203242649142
 10
9451.4509798378603591
 20
3409.8058203242649142
 10
9451.4509798378603591
 20
2995.6562803242668451
 10
9451.4509798378603591
 20
2995.6562803242668451
 10
9486.3251798378587409
 20
2943.8809203242672083
 10
9486.3251798378587409
 20
2943.8809203242672083
 10
9486.3251798378587409
 20
2943.8809203242672083
 10
9486.3251798378587409
 20
2943.8809203242672083
 10
9486.3251798378587409
 20
2943.8809203242672083
 10
9486.3251798378587409
 20
2943.8809203242672083
 10
9486.3251798378587409
 20
2943.8809203242672083
 10
9486.3251798378587409
 20
2943.8809203242672083
 10
9486.3251798378587409
 20
2943.8809203242672083
 10
9486.3251798378587409
 20
2943.8809203242672083
 10
9486.3251798378587409
 20
2943.8809203242672083
 10
9486.3251798378587409
 20
2943.8809203242672083
 10
9486.3251798378587409
 20
2943.8809203242672083
 10
9486.3251798378587409
 20
2943.8809203242672083
 10
9486.3251798378587409
 20
2943.8809203242672083
 10
9486.3251798378587409
 20
2943.8809203242672083
 10
9486.3251798378587409
 20
2943.8809203242672083
 10
9486.3251798378587409
 20
2943.8809203242672083
 10
9486.3251798378587409
 20
2943.8809203242672083
 10
9486.3251798378587409
 20
2943.8809203242672083
 10
9486.3251798378587409
 20
2943.8809203242672083
 10
9486.3251798378587409
 20
2943.8809203242672083
 10
9486.3251798378587409
 20
2943.8809203242672083
 10
9486.3251798378587409
 20
2943.8809203242672083
 10
9486.3251798378587409
 20
2943.8809203242672083
 10
9486.3251798378587409
 20
2943.8809203242672083
 10
9486.3251798378587409
 20
2943.8809203242672083
 10
9486.3251798378587409
 20
2943.8809203242672083
 10
9486.3251798378587409
 20
2943.8809203242672083
 10
9486.3251798378587409
 20
2943.8809203242672083
 10
9486.3251798378587409
 20
2943.8809203242672083
 10
9435.266099837859656
 20
2979.4688603242648242
  0
ENDSEC
  0
SECTION
  2
OBJECTS
  0
DICTIONARY
  5
C
100
AcDbDictionary
280
0
281
1
  3
ACAD_GROUP
350
D
  3
ACAD_LAYOUT
350
1A
  3
ACAD_MLINESTYLE
350
17
  3
ACAD_PLOTSETTINGS
350
19
  3
ACAD_PLOTSTYLENAME
350
E
  3
AcDbVariableDictionary
350
9C
  0
DICTIONARY
  5
D
100
AcDbDictionary
280
0
281
1
  0
ACDBDICTIONARYWDFLT
  5
E
100
AcDbDictionary
281
1
  3
Normal
350
F
100
AcDbDictionaryWithDefault
340
F
  0
ACDBPLACEHOLDER
  5
F
  0
DICTIONARY
  5
17
100
AcDbDictionary
280
0
281
1
  3
Standard
350
18
  0
MLINESTYLE
  5
18
100
AcDbMlineStyle
  2
STANDARD
 70
0
  3

 62
256
 51
90.0
 52
90.0
 71
2
 49
0.5
 62
256
  6
BYLAYER
 49
-0.5
 62
256
  6
BYLAYER
  0
DICTIONARY
  5
19
100
AcDbDictionary
280
0
281
1
  0
DICTIONARY
  5
1A
100
AcDbDictionary
281
1
  3
Layout1
350
1E
  3
Layout2
350
26
  3
Model
350
22
  0
LAYOUT
  5
1E
100
AcDbPlotSettings
  1

  2
C:\Program Files\AutoCAD 2002\plotters\DWF ePlot (optimized for plotting).pc3
  4

  6

 40
0.0
 41
0.0
 42
0.0
 43
0.0
 44
0.0
 45
0.0
 46
0.0
 47
0.0
 48
0.0
 49
0.0
140
0.0
141
0.0
142
1.0
143
1.0
 70
688
 72
0
 73
0
 74
5
  7

 75
16
147
1.0
148
0.0
149
0.0
100
AcDbLayout
  1
Layout1
 70
1
 71
1
 10
0.0
 20
0.0
 11
420.0
 21
297.0
 12
0.0
 22
0.0
 32
0.0
 14
100000000000000000000.0
 24
100000000000000000000.0
 34
100000000000000000000.0
 15
-100000000000000000000.0
 25
-100000000000000000000.0
 35
-100000000000000000000.0
146
0.0
 13
0.0
 23
0.0
 33
0.0
 16
1.0
 26
0.0
 36
0.0
 17
0.0
 27
1.0
 37
0.0
 76
0
330
1B
  0
LAYOUT
  5
22
100
AcDbPlotSettings
  1

  2
C:\Program Files\AutoCAD 2002\plotters\DWF ePlot (optimized for plotting).pc3
  4

  6

 40
0.0
 41
0.0
 42
0.0
 43
0.0
 44
0.0
 45
0.0
 46
0.0
 47
0.0
 48
0.0
 49
0.0
140
0.0
141
0.0
142
1.0
143
1.0
 70
1712
 72
0
 73
0
 74
0
  7

 75
0
147
1.0
148
0.0
149
0.0
100
AcDbLayout
  1
Model
 70
1
 71
0
 10
0.0
 20
0.0
 11
12.0
 21
9.0
 12
0.0
 22
0.0
 32
0.0
 14
0.0
 24
0.0
 34
0.0
 15
0.0
 25
0.0
 35
0.0
146
0.0
 13
0.0
 23
0.0
 33
0.0
 16
1.0
 26
0.0
 36
0.0
 17
0.0
 27
1.0
 37
0.0
 76
0
330
1F
  0
LAYOUT
  5
26
100
AcDbPlotSettings
  1

  2
C:\Program Files\AutoCAD 2002\plotters\DWF ePlot (optimized for plotting).pc3
  4

  6

 40
0.0
 41
0.0
 42
0.0
 43
0.0
 44
0.0
 45
0.0
 46
0.0
 47
0.0
 48
0.0
 49
0.0
140
0.0
141
0.0
142
1.0
143
1.0
 70
688
 72
0
 73
0
 74
5
  7

 75
16
147
1.0
148
0.0
149
0.0
100
AcDbLayout
  1
Layout2
 70
1
 71
2
 10
0.0
 20
0.0
 11
12.0
 21
9.0
 12
0.0
 22
0.0
 32
0.0
 14
0.0
 24
0.0
 34
0.0
 15
0.0
 25
0.0
 35
0.0
146
0.0
 13
0.0
 23
0.0
 33
0.0
 16
1.0
 26
0.0
 36
0.0
 17
0.0
 27
1.0
 37
0.0
 76
0
330
23
  0
DICTIONARY
  5
9C
100
AcDbDictionary
281
1
  3
DIMASSOC
350
9E
  3
HIDETEXT
350
9D
  0
DICTIONARYVAR
  5
9D
100
DictionaryVariables
280
0
  1
2
  0
DICTIONARYVAR
  5
9E
100
DictionaryVariables
280
0
  1
1
  0
ENDSEC
  0
EOF
